<?xml version="1.0" standalone="no"?>
<!DOCTYPE svg PUBLIC "-//W3C//DTD SVG 20010904//EN"
 "http://www.w3.org/TR/2001/REC-SVG-20010904/DTD/svg10.dtd">
<svg version="1.0" xmlns="http://www.w3.org/2000/svg"
 width="2048.000000pt" height="2048.000000pt" viewBox="0 0 2048.000000 2048.000000"
 preserveAspectRatio="xMidYMid meet">
  <style>
    path {
      fill: none;
      stroke: #ef4444; /* bright brand red — only place red appears on the site */
      stroke-width: 14;
      stroke-linecap: round;
      stroke-linejoin: round;
      stroke-dasharray: 100;
      stroke-dashoffset: 100;
      animation: heroLoaderDraw 2500ms ease-out forwards;
      animation-delay: calc(var(--n, 0) * 25ms);
      animation-iteration-count: infinite;
    }
    path[data-n="0"] { --n: 0; }
    path[data-n="1"] { --n: 1; }
    path[data-n="2"] { --n: 2; }
    path[data-n="3"] { --n: 3; }
    path[data-n="4"] { --n: 4; }
    path[data-n="5"] { --n: 5; }
    path[data-n="6"] { --n: 6; }
    path[data-n="7"] { --n: 7; }
    path[data-n="8"] { --n: 8; }
    path[data-n="9"] { --n: 9; }
    path[data-n="10"] { --n: 10; }
    path[data-n="11"] { --n: 11; }
    path[data-n="12"] { --n: 12; }
    path[data-n="13"] { --n: 13; }
    path[data-n="14"] { --n: 14; }
    path[data-n="15"] { --n: 15; }
    path[data-n="16"] { --n: 16; }
    path[data-n="17"] { --n: 17; }
    path[data-n="18"] { --n: 18; }
    path[data-n="19"] { --n: 19; }
    path[data-n="20"] { --n: 20; }
    path[data-n="21"] { --n: 21; }
    path[data-n="22"] { --n: 22; }
    path[data-n="23"] { --n: 23; }
    path[data-n="24"] { --n: 24; }
    path[data-n="25"] { --n: 25; }
    path[data-n="26"] { --n: 26; }
    path[data-n="27"] { --n: 27; }
    path[data-n="28"] { --n: 28; }
    path[data-n="29"] { --n: 29; }
    path[data-n="30"] { --n: 30; }
    path[data-n="31"] { --n: 31; }
    path[data-n="32"] { --n: 32; }
    path[data-n="33"] { --n: 33; }
    path[data-n="34"] { --n: 34; }
    path[data-n="35"] { --n: 35; }
    path[data-n="36"] { --n: 36; }
    path[data-n="37"] { --n: 37; }
    path[data-n="38"] { --n: 38; }
    path[data-n="39"] { --n: 39; }
    path[data-n="40"] { --n: 40; }
    path[data-n="41"] { --n: 41; }
    path[data-n="42"] { --n: 42; }
    path[data-n="43"] { --n: 43; }
    path[data-n="44"] { --n: 44; }
    path[data-n="45"] { --n: 45; }
    path[data-n="46"] { --n: 46; }
    path[data-n="47"] { --n: 47; }
    path[data-n="48"] { --n: 48; }
    path[data-n="49"] { --n: 49; }
    path[data-n="50"] { --n: 50; }
    path[data-n="51"] { --n: 51; }
    path[data-n="52"] { --n: 52; }
    path[data-n="53"] { --n: 53; }
    path[data-n="54"] { --n: 54; }
    path[data-n="55"] { --n: 55; }
    path[data-n="56"] { --n: 56; }
    path[data-n="57"] { --n: 57; }
    path[data-n="58"] { --n: 58; }
    path[data-n="59"] { --n: 59; }
    path[data-n="60"] { --n: 60; }
    path[data-n="61"] { --n: 61; }
    path[data-n="62"] { --n: 62; }
    path[data-n="63"] { --n: 63; }
    path[data-n="64"] { --n: 64; }
    path[data-n="65"] { --n: 65; }
    path[data-n="66"] { --n: 66; }
    path[data-n="67"] { --n: 67; }
    path[data-n="68"] { --n: 68; }
    path[data-n="69"] { --n: 69; }
    path[data-n="70"] { --n: 70; }
    path[data-n="71"] { --n: 71; }
    path[data-n="72"] { --n: 72; }
    path[data-n="73"] { --n: 73; }
    path[data-n="74"] { --n: 74; }
    path[data-n="75"] { --n: 75; }
    path[data-n="76"] { --n: 76; }
    path[data-n="77"] { --n: 77; }
    path[data-n="78"] { --n: 78; }
    path[data-n="79"] { --n: 79; }
    path[data-n="80"] { --n: 80; }
    path[data-n="81"] { --n: 81; }
    path[data-n="82"] { --n: 82; }
    path[data-n="83"] { --n: 83; }
    path[data-n="84"] { --n: 84; }
    path[data-n="85"] { --n: 85; }
    path[data-n="86"] { --n: 86; }
    path[data-n="87"] { --n: 87; }
    path[data-n="88"] { --n: 88; }
    path[data-n="89"] { --n: 89; }
    path[data-n="90"] { --n: 90; }
    path[data-n="91"] { --n: 91; }
    path[data-n="92"] { --n: 92; }
    path[data-n="93"] { --n: 93; }
    path[data-n="94"] { --n: 94; }
    path[data-n="95"] { --n: 95; }
    path[data-n="96"] { --n: 96; }
    path[data-n="97"] { --n: 97; }
    path[data-n="98"] { --n: 98; }
    path[data-n="99"] { --n: 99; }
    path[data-n="100"] { --n: 100; }
    path[data-n="101"] { --n: 101; }
    path[data-n="102"] { --n: 102; }
    path[data-n="103"] { --n: 103; }
    path[data-n="104"] { --n: 104; }
    path[data-n="105"] { --n: 105; }
    path[data-n="106"] { --n: 106; }
    path[data-n="107"] { --n: 107; }
    path[data-n="108"] { --n: 108; }
    path[data-n="109"] { --n: 109; }
    path[data-n="110"] { --n: 110; }
    path[data-n="111"] { --n: 111; }
    path[data-n="112"] { --n: 112; }
    path[data-n="113"] { --n: 113; }
    path[data-n="114"] { --n: 114; }
    path[data-n="115"] { --n: 115; }
    path[data-n="116"] { --n: 116; }
    path[data-n="117"] { --n: 117; }
    path[data-n="118"] { --n: 118; }
    path[data-n="119"] { --n: 119; }
    path[data-n="120"] { --n: 120; }
    path[data-n="121"] { --n: 121; }
    path[data-n="122"] { --n: 122; }
    path[data-n="123"] { --n: 123; }
    path[data-n="124"] { --n: 124; }
    path[data-n="125"] { --n: 125; }
    path[data-n="126"] { --n: 126; }
    path[data-n="127"] { --n: 127; }
    path[data-n="128"] { --n: 128; }
    path[data-n="129"] { --n: 129; }
    path[data-n="130"] { --n: 130; }
    path[data-n="131"] { --n: 131; }
    path[data-n="132"] { --n: 132; }
    path[data-n="133"] { --n: 133; }
    path[data-n="134"] { --n: 134; }
    path[data-n="135"] { --n: 135; }
    path[data-n="136"] { --n: 136; }
    path[data-n="137"] { --n: 137; }
    path[data-n="138"] { --n: 138; }
    path[data-n="139"] { --n: 139; }
    path[data-n="140"] { --n: 140; }
    path[data-n="141"] { --n: 141; }
    path[data-n="142"] { --n: 142; }
    path[data-n="143"] { --n: 143; }
    path[data-n="144"] { --n: 144; }
    path[data-n="145"] { --n: 145; }
    path[data-n="146"] { --n: 146; }
    path[data-n="147"] { --n: 147; }
    path[data-n="148"] { --n: 148; }
    path[data-n="149"] { --n: 149; }
    path[data-n="150"] { --n: 150; }
    path[data-n="151"] { --n: 151; }
    path[data-n="152"] { --n: 152; }
    path[data-n="153"] { --n: 153; }
    path[data-n="154"] { --n: 154; }
    path[data-n="155"] { --n: 155; }
    path[data-n="156"] { --n: 156; }
    path[data-n="157"] { --n: 157; }
    path[data-n="158"] { --n: 158; }
    path[data-n="159"] { --n: 159; }
    path[data-n="160"] { --n: 160; }
    path[data-n="161"] { --n: 161; }
    path[data-n="162"] { --n: 162; }
    path[data-n="163"] { --n: 163; }
    path[data-n="164"] { --n: 164; }
    path[data-n="165"] { --n: 165; }
    path[data-n="166"] { --n: 166; }
    path[data-n="167"] { --n: 167; }
    path[data-n="168"] { --n: 168; }
    path[data-n="169"] { --n: 169; }
    path[data-n="170"] { --n: 170; }
    path[data-n="171"] { --n: 171; }
    path[data-n="172"] { --n: 172; }
    path[data-n="173"] { --n: 173; }
    path[data-n="174"] { --n: 174; }
    path[data-n="175"] { --n: 175; }
    path[data-n="176"] { --n: 176; }
    path[data-n="177"] { --n: 177; }
    path[data-n="178"] { --n: 178; }
    path[data-n="179"] { --n: 179; }
    path[data-n="180"] { --n: 180; }
    path[data-n="181"] { --n: 181; }
    path[data-n="182"] { --n: 182; }
    path[data-n="183"] { --n: 183; }
    path[data-n="184"] { --n: 184; }
    path[data-n="185"] { --n: 185; }
    path[data-n="186"] { --n: 186; }
    path[data-n="187"] { --n: 187; }
    path[data-n="188"] { --n: 188; }
    path[data-n="189"] { --n: 189; }
    path[data-n="190"] { --n: 190; }
    path[data-n="191"] { --n: 191; }
    path[data-n="192"] { --n: 192; }
    path[data-n="193"] { --n: 193; }
    path[data-n="194"] { --n: 194; }
    path[data-n="195"] { --n: 195; }
    path[data-n="196"] { --n: 196; }
    path[data-n="197"] { --n: 197; }
    path[data-n="198"] { --n: 198; }
    path[data-n="199"] { --n: 199; }
    @keyframes heroLoaderDraw {
      0%   { stroke-dashoffset: 100; opacity: 0; }
      10%  { opacity: 1; }
      70%  { stroke-dashoffset: 0; opacity: 1; }
      85%  { stroke-dashoffset: 0; opacity: 1; }
      100% { stroke-dashoffset: 0; opacity: 0; }
    }
  </style>
<metadata>
Created by potrace 1.16, written by Peter Selinger 2001-2019
</metadata>
<g transform="translate(0.000000,2048.000000) scale(0.100000,-0.100000)"
fill="#000000" stroke="none">
<path data-n="0" pathLength="100" d="M13403 16485 c-40 -17 -40 -17 -112 -227 -70 -204 -126 -345 -330
-836 -81 -196 -152 -367 -156 -380 -4 -13 -9 -22 -11 -19 -5 5 163 497 220
642 44 112 103 235 190 398 42 79 43 88 17 111 -44 40 -71 9 -157 -184 -32
-71 -61 -130 -65 -130 -16 0 -155 107 -254 196 -175 157 -252 224 -259 224
-16 0 -156 -167 -297 -357 -461 -616 -922 -1514 -1238 -2410 -176 -499 -289
-911 -337 -1229 l-4 -32 -43 15 c-59 21 -124 19 -177 -5 -34 -15 -83 -23 -205
-31 -343 -24 -535 -59 -895 -162 -385 -110 -581 -175 -770 -256 -96 -42 -350
-149 -565 -238 -214 -90 -471 -203 -570 -251 -99 -49 -184 -91 -189 -93 -12
-5 0 163 19 276 9 49 45 205 80 348 54 215 67 284 76 400 6 77 19 187 29 245
32 184 90 499 130 710 62 330 65 359 64 665 -1 297 -23 549 -63 720 -10 44
-33 140 -50 214 -37 156 -62 208 -149 302 -43 46 -71 88 -87 128 -13 34 -33
75 -46 92 -25 36 -24 40 25 174 14 39 28 89 32 111 l6 41 -93 7 c-107 8 -183
-6 -369 -69 -107 -36 -230 -68 -237 -62 -2 2 4 21 13 42 24 59 35 140 22 176
-11 31 -75 69 -117 69 -30 0 -137 -469 -361 -1571 -231 -1138 -468 -2218 -573
-2613 l-13 -49 -19 64 c-19 63 -65 129 -90 129 -22 0 -34 -24 -68 -142 l-33
-116 -44 24 c-25 13 -54 23 -64 24 -18 0 -17 3 6 28 65 68 241 402 257 488 15
80 -8 157 -66 219 -24 27 -340 242 -400 274 -33 17 -94 13 -126 -8 -86 -57
-127 -195 -127 -434 0 -215 38 -341 141 -464 77 -92 96 -130 114 -228 28 -154
86 -240 218 -329 l57 -37 -16 -37 c-9 -20 -28 -71 -44 -112 -15 -42 -51 -132
-80 -202 l-52 -126 -111 -6 c-107 -7 -382 -34 -572 -57 -703 -85 -1392 -421
-1885 -919 -63 -64 -137 -131 -164 -150 -135 -92 -273 -259 -356 -431 -47 -97
-48 -109 -16 -109 93 0 165 80 290 325 87 171 175 279 348 432 500 441 1031
700 1649 808 380 66 608 80 1139 70 239 -4 450 -7 469 -7 47 1 75 14 231 102
196 112 390 212 743 384 172 84 407 200 522 259 116 59 367 173 560 253 193
80 420 176 505 214 233 101 327 134 646 225 521 149 702 183 1159 221 l80 6
-31 -33 c-40 -42 -101 -138 -133 -207 l-25 -53 -415 7 c-664 10 -807 -17
-1401 -268 -897 -378 -1280 -549 -1575 -702 -231 -120 -579 -312 -657 -362
-132 -85 -118 -82 -373 -86 -259 -5 -309 -15 -505 -101 -304 -132 -182 -231
466 -381 591 -136 860 -166 1519 -166 228 0 526 -7 670 -15 143 -8 280 -15
305 -15 l45 -1 -75 -28 c-117 -45 -317 -137 -410 -190 -89 -51 -90 -51 -385
-101 -298 -51 -913 -268 -915 -323 0 -4 42 -55 93 -114 l92 -107 50 2 c28 2
96 -4 152 -13 108 -16 150 -19 141 -9 -10 9 -240 44 -295 44 -29 0 -53 3 -53
8 0 4 -34 48 -75 97 -41 50 -75 93 -75 96 0 24 538 214 556 196 3 -3 -3 -8
-14 -11 -26 -9 -34 -32 -17 -46 8 -7 45 -14 82 -17 77 -5 69 10 -12 22 l-50 8
50 23 c29 13 123 36 225 54 96 18 220 43 275 56 63 15 170 30 290 40 153 12
258 28 540 84 389 77 496 92 795 115 113 8 300 26 415 40 271 31 304 33 590
45 132 6 259 13 283 16 l44 7 -7 -49 c-31 -209 -142 -426 -246 -479 -51 -27
-140 -20 -188 15 -86 63 -113 60 -198 -21 -28 -27 -63 -53 -77 -59 -41 -15
-30 -30 22 -30 38 0 59 7 93 30 54 36 76 37 139 5 58 -29 107 -32 193 -9 86
22 109 36 198 120 44 40 93 81 108 89 l29 15 21 -68 c36 -117 101 -196 146
-178 23 8 195 379 540 1164 97 220 118 260 91 169 -8 -27 -10 -47 -4 -47 5 0
6 -4 3 -10 -3 -5 -3 -10 2 -10 4 0 30 53 57 118 182 439 303 686 686 1402 276
517 516 988 706 1385 355 742 491 1000 967 1838 180 316 226 403 221 423 -8
31 -55 71 -119 100 -124 59 -182 21 -335 -219 -60 -93 -90 -125 -55 -57 9 18
14 34 11 37 -3 3 -27 -41 -54 -98 -28 -57 -73 -153 -102 -214 -162 -341 -495
-1122 -785 -1840 -303 -752 -415 -1012 -712 -1660 -210 -456 -385 -846 -581
-1290 -165 -376 -471 -1053 -508 -1127 -29 -57 -46 -60 -89 -13 -43 45 -104
234 -130 400 -4 22 -25 132 -47 245 -51 259 -58 422 -20 505 20 42 127 195
138 195 1 0 11 -27 20 -60 35 -126 106 -143 235 -55 130 89 266 265 276 360
10 82 -30 123 -212 220 -126 67 -237 168 -317 290 l-46 69 38 44 c24 27 47 69
61 110 35 109 103 228 144 254 7 4 20 25 30 47 17 39 17 43 1 86 -38 97 -114
189 -208 248 -22 14 -27 23 -23 45 3 15 14 83 25 152 28 169 76 359 161 635
358 1161 889 2226 1506 3015 165 212 159 205 169 187 10 -16 306 -284 369
-333 22 -17 61 -43 87 -58 l47 -27 -20 -47 c-11 -26 -79 -220 -151 -432 -352
-1044 -878 -2283 -1411 -3325 -79 -154 -219 -428 -311 -608 -154 -300 -176
-351 -148 -333 39 24 554 990 838 1571 328 672 732 1623 945 2222 25 72 46
118 50 111 5 -8 11 -4 17 12 6 14 65 156 132 315 178 425 280 681 339 850 90
256 102 285 124 296 66 36 383 -66 458 -148 58 -63 55 -75 -153 -477 -87 -169
-157 -310 -154 -313 5 -5 58 92 196 362 56 110 105 204 110 209 4 4 51 -12
102 -37 294 -139 526 -376 808 -829 l89 -141 -57 -81 c-333 -477 -740 -987
-1437 -1801 -532 -621 -1035 -1257 -1254 -1584 -130 -193 -523 -827 -606 -976
-113 -202 -297 -570 -393 -785 -150 -340 -291 -695 -277 -698 7 -2 60 4 117
13 129 20 478 33 478 17 0 -6 -20 -69 -44 -141 -148 -432 -189 -674 -207
-1218 -15 -456 3 -620 82 -760 138 -241 452 -287 1034 -149 105 24 307 67 450
95 532 105 678 158 912 333 283 211 595 660 704 1013 64 209 96 289 195 485
131 263 158 362 171 639 l6 134 36 -40 c20 -22 48 -55 63 -74 35 -44 48 -28
48 62 0 87 -14 127 -48 135 -15 3 -33 7 -39 10 -21 6 -15 59 12 95 13 19 32
45 42 59 32 43 23 134 -20 222 -27 53 -40 97 -47 154 -10 79 -3 261 10 269 4
3 15 -37 25 -88 10 -50 24 -103 31 -117 17 -31 44 -238 44 -333 0 -99 13 -121
71 -125 l46 -3 5 -77 c8 -138 53 -180 180 -168 36 3 74 9 83 12 18 7 17 -31
-7 -231 -20 -176 -84 -341 -297 -765 -240 -478 -332 -622 -666 -1040 -160
-200 -235 -272 -363 -347 -113 -67 -138 -74 -376 -108 -260 -37 -443 -76 -676
-145 -290 -85 -736 -196 -909 -226 -449 -77 -605 -24 -747 255 -72 140 -81
130 -19 -19 69 -163 167 -256 300 -285 17 -4 36 -9 44 -11 8 -3 -44 -33 -115
-68 -117 -57 -337 -193 -407 -252 -52 -44 -15 -25 107 54 307 199 425 253 561
258 237 9 418 49 1145 254 291 82 352 96 660 150 288 50 319 58 444 123 137
72 200 134 427 424 297 380 402 552 688 1124 192 383 228 496 237 733 l4 128
42 22 c53 27 61 54 48 164 -13 99 -21 121 -64 181 -52 72 -68 110 -68 165 0
46 -4 54 -52 105 -29 31 -70 79 -91 106 -83 105 -158 185 -202 214 l-46 31 54
0 54 0 25 -47 c15 -28 80 -100 158 -177 74 -72 140 -142 147 -157 10 -19 45
-170 45 -195 0 -2 5 -4 10 -4 12 0 6 59 -17 150 -16 64 -18 67 -163 212 -81
80 -156 162 -168 181 l-20 35 37 6 c117 19 179 -13 292 -151 133 -163 167
-253 204 -538 27 -209 18 -312 -50 -634 -32 -150 -41 -211 -31 -200 12 12 97
430 107 525 17 170 -28 512 -90 674 -17 44 -18 55 -7 64 7 6 37 46 65 89 48
72 54 77 87 77 109 0 180 -89 264 -330 39 -112 45 -120 78 -120 l25 0 -6 -142
c-11 -288 -126 -685 -307 -1055 -54 -112 -95 -203 -91 -203 11 0 187 356 225
457 81 213 186 608 186 700 0 87 54 123 196 131 104 5 108 3 106 -67 -1 -48
10 -38 22 21 10 46 47 62 157 66 164 7 209 -22 209 -136 0 -63 -2 -68 -86
-211 -172 -289 -255 -401 -426 -567 -226 -220 -478 -414 -704 -540 -98 -55
-67 -54 39 0 326 170 723 515 939 818 93 129 215 330 289 474 60 117 67 135
60 166 l-8 35 161 12 c89 6 206 16 261 21 331 31 876 -4 1023 -65 l33 -15 -44
-57 c-201 -265 -417 -676 -539 -1028 -113 -326 -158 -566 -207 -1098 -13 -150
31 -132 -460 -187 -534 -60 -890 -114 -1304 -200 -106 -21 -271 -55 -367 -75
-472 -97 -667 -112 -777 -61 -35 16 -63 34 -63 41 0 24 110 105 144 105 52 0
159 38 178 62 15 21 18 21 30 7 20 -25 74 -40 104 -29 32 13 90 13 133 0 31
-9 36 -7 65 25 18 19 46 40 63 45 17 6 44 28 61 49 17 21 44 44 61 51 17 7 31
15 31 19 0 13 -134 10 -150 -3 -35 -30 -115 -66 -146 -66 -19 0 -43 -5 -53
-12 -15 -9 -26 -9 -47 1 -24 11 -31 9 -58 -10 -16 -12 -43 -26 -60 -30 l-31
-7 31 -1 c18 -1 43 8 59 21 24 19 31 20 62 9 30 -11 37 -11 53 4 13 12 27 15
45 11 20 -5 43 3 101 39 63 38 81 45 109 39 l33 -6 -42 -42 c-23 -24 -53 -47
-66 -51 -14 -4 -39 -24 -57 -43 l-32 -35 -54 13 c-43 10 -62 10 -91 0 -44 -14
-102 -6 -114 17 -6 10 -17 14 -31 10 -18 -4 -21 -1 -21 24 0 22 6 30 25 35 13
3 29 12 36 20 6 8 32 19 56 25 24 7 48 20 54 31 6 10 22 23 36 29 14 5 27 18
30 28 5 19 42 41 68 41 8 0 15 8 15 18 0 9 3 27 6 40 11 38 -44 30 -86 -13
-19 -19 -43 -35 -53 -35 -11 0 -33 -15 -51 -34 -27 -30 -39 -34 -100 -41 -90
-9 -93 -11 -116 -54 -23 -45 -68 -88 -140 -133 -64 -41 -76 -54 -110 -119 -87
-168 -146 -221 -263 -234 -62 -8 -90 4 -80 33 12 35 231 344 373 527 241 311
369 506 508 777 l58 113 51 -41 c101 -82 270 -110 373 -61 l35 17 -45 -7
c-151 -26 -265 0 -366 83 -25 21 -48 33 -53 28 -4 -5 -42 -71 -85 -147 -181
-321 -268 -453 -479 -725 -195 -251 -397 -545 -397 -578 0 -42 75 -56 181 -33
64 14 115 58 153 133 l28 54 46 -31 c132 -89 275 -77 1077 88 523 107 786 148
1390 215 204 22 385 45 403 50 38 10 40 5 10 -22 -65 -57 -192 -98 -613 -198
-143 -33 -462 -112 -710 -175 -247 -62 -603 -150 -790 -195 -422 -102 -556
-140 -861 -240 -133 -44 -250 -80 -260 -79 -11 0 0 7 22 15 101 36 172 142
160 239 -7 60 -25 129 -32 122 -3 -3 0 -41 6 -85 24 -161 -62 -261 -238 -277
-95 -8 -114 32 -72 152 23 66 23 63 11 63 -5 0 -16 -18 -24 -39 -17 -42 -13
-41 -147 -57 -30 -4 -91 -17 -135 -31 -94 -28 -667 -173 -803 -203 -51 -11
-276 -51 -500 -89 -867 -148 -1017 -194 -1365 -420 -70 -46 -130 -81 -133 -79
-2 3 7 45 22 94 14 49 36 138 50 198 17 75 33 123 54 154 35 53 35 56 14 129
l-16 54 39 122 c37 120 38 124 38 282 0 181 -20 249 -88 298 -178 129 -178
129 -186 292 -7 121 -8 126 -41 172 -94 133 -142 207 -195 303 -72 131 -119
200 -232 334 -48 58 -107 139 -129 179 -43 75 -69 97 -117 97 -39 0 -75 21
-149 85 -93 82 -162 125 -252 157 l-81 29 150 -5 c254 -9 562 -94 704 -195 53
-38 81 -24 81 39 0 60 38 151 94 224 31 40 56 76 56 80 0 17 -27 0 -81 -51
-66 -63 -99 -140 -99 -234 0 -27 -2 -49 -4 -49 -2 0 -41 20 -87 44 -309 165
-837 223 -1102 122 -60 -23 -83 -26 -177 -25 -119 1 -122 0 -220 -71 -104 -75
-130 -88 -281 -140 -215 -74 -307 -143 -370 -280 -16 -36 -40 -85 -54 -110
-87 -159 -259 -518 -280 -585 -90 -290 -135 -410 -235 -630 -42 -93 -87 -201
-100 -240 -12 -38 -44 -117 -70 -175 -26 -58 -60 -143 -75 -190 -33 -101 -67
-150 -102 -150 -17 0 -38 -14 -63 -41 -36 -40 -40 -42 -81 -35 -35 6 -48 3
-81 -19 l-39 -26 -32 20 c-18 11 -50 38 -72 60 -50 52 -56 51 -54 -5 5 -83
-62 -99 -160 -40 -31 19 -97 54 -146 77 -50 23 -119 55 -155 72 -42 20 -85 51
-122 89 -57 58 -57 58 -52 25 16 -96 27 -144 37 -162 6 -11 11 -41 13 -68 2
-40 11 -58 58 -121 61 -82 68 -86 133 -86 39 0 49 -5 84 -41 21 -22 39 -49 39
-59 0 -10 22 -45 48 -77 70 -83 73 -98 17 -71 -54 26 -65 20 -35 -21 l21 -31
-78 0 c-61 0 -85 4 -108 20 -20 13 -47 20 -81 20 -40 0 -55 5 -73 24 -27 29
-71 39 -175 38 -64 0 -82 4 -97 19 -23 23 -42 24 -59 4 -10 -12 -24 -14 -55
-9 -33 5 -43 2 -48 -10 -4 -9 -13 -16 -21 -16 -25 0 -145 58 -184 89 -36 29
-40 30 -134 28 -65 -1 -102 3 -110 11 -16 16 -38 15 -38 -2 0 -7 18 -33 39
-58 22 -24 39 -53 38 -64 -2 -19 16 -22 93 -12 23 3 25 0 25 -42 0 -66 8 -73
74 -66 40 4 61 2 74 -8 16 -13 23 -11 55 10 36 25 37 25 46 5 11 -25 23 -26
48 -4 30 27 103 22 136 -10 16 -15 35 -27 43 -27 8 0 19 -4 25 -9 5 -5 29 -11
53 -13 41 -3 45 -1 51 22 9 37 75 51 96 21 9 -12 21 -20 28 -19 20 5 74 -56
78 -88 2 -22 8 -28 23 -26 11 1 51 4 88 5 78 3 100 -7 122 -59 10 -24 20 -34
36 -34 12 0 37 -13 56 -30 18 -16 38 -30 43 -30 17 0 11 36 -10 63 -11 14 -20
32 -20 40 0 7 -9 22 -20 32 -33 30 -26 52 20 60 22 4 42 11 45 15 4 7 114 7
193 1 7 -1 34 -24 61 -52 l49 -51 46 10 47 10 -7 -62 c-19 -165 -17 -160 -46
-170 -21 -8 -42 -4 -96 18 -78 30 -161 46 -243 46 -80 0 -159 17 -231 49 -35
16 -106 40 -158 55 -52 15 -124 40 -159 56 -70 33 -75 35 -66 20 13 -21 124
-69 230 -100 61 -18 121 -38 135 -46 l25 -13 -30 4 c-16 3 -82 12 -145 21 -63
9 -166 31 -229 50 -168 51 -221 62 -375 74 -197 15 -340 67 -484 175 -138 103
-205 298 -119 344 55 29 103 80 137 142 17 33 53 81 79 105 87 82 320 250 451
325 196 111 284 181 404 322 114 133 165 185 240 241 l49 36 28 -50 c78 -142
248 -263 449 -318 41 -12 140 -46 219 -76 121 -47 172 -61 150 -42 -4 3 -235
93 -384 149 -163 62 -343 211 -398 328 -34 73 -42 75 -124 34 -80 -40 -151
-105 -252 -232 -40 -50 -102 -116 -136 -145 -62 -52 -83 -65 -250 -161 -44
-26 -126 -82 -182 -126 l-101 -79 63 107 c34 58 86 144 114 190 86 142 87 160
13 259 l-25 33 -76 -7 c-42 -3 -98 -16 -126 -26 -29 -12 -74 -20 -105 -20 -35
0 -66 -7 -85 -18 -27 -16 -42 -17 -139 -10 -142 12 -176 35 -176 121 0 39 16
37 30 -5 13 -39 35 -61 70 -69 14 -3 43 -12 65 -20 37 -15 41 -14 59 3 15 15
23 16 42 8 17 -8 35 -7 73 6 27 9 71 16 97 16 32 0 79 13 141 37 102 41 113
58 53 78 -21 7 -36 20 -39 31 -2 10 -7 24 -11 29 -4 6 -11 25 -15 43 -5 25
-16 37 -46 53 -46 23 -54 20 -63 -22 -7 -39 -16 -33 -27 18 -19 91 -26 109
-34 91 -8 -19 18 -145 34 -161 17 -17 40 1 46 36 11 58 52 27 80 -60 20 -60
26 -69 54 -79 l33 -11 -64 -22 c-34 -12 -88 -27 -118 -32 -30 -6 -79 -17 -109
-25 -32 -10 -67 -13 -88 -9 -27 5 -38 2 -48 -11 -12 -16 -15 -16 -54 4 -23 12
-50 22 -60 22 -22 0 -41 22 -64 72 -9 21 -21 38 -26 38 -27 0 -40 -75 -21
-124 16 -44 54 -59 178 -72 107 -12 118 -12 152 6 25 13 49 17 71 14 19 -3 59
2 89 11 49 15 122 29 188 37 17 2 31 -7 50 -31 l27 -34 -28 7 c-39 9 -175 -11
-266 -39 -105 -33 -394 -40 -454 -11 -78 38 -99 68 -92 129 6 44 2 67 -19 126
-29 79 -26 85 20 40 33 -32 46 -29 72 17 23 41 92 -25 92 -87 0 -42 33 -58
117 -55 50 2 90 -3 113 -12 49 -20 125 -10 188 25 74 40 71 63 -9 63 -59 0
-60 1 -74 33 -8 19 -21 39 -29 46 -11 9 -14 32 -14 84 1 40 -2 82 -6 94 -7 21
-5 22 23 17 25 -5 44 2 99 35 37 22 76 41 85 41 79 0 241 -142 256 -224 9 -51
32 -79 57 -69 17 6 18 43 3 96 -9 33 -7 43 12 73 19 31 20 40 10 82 -25 102
-45 123 -168 171 -29 11 -70 31 -90 44 -21 13 -60 32 -87 42 -37 14 -52 26
-62 52 -27 64 -24 67 84 81 53 7 144 22 202 33 69 13 168 22 288 26 100 3 182
9 182 13 0 4 -42 11 -92 14 -102 8 -210 -2 -423 -38 -203 -35 -323 -41 -414
-22 -41 9 -75 15 -76 13 0 -1 2 -60 6 -132 6 -123 8 -134 43 -205 34 -72 36
-82 40 -194 4 -101 7 -123 25 -147 12 -15 21 -35 21 -43 0 -25 46 -49 81 -42
35 7 31 -7 -9 -28 -48 -24 -106 -29 -148 -11 -25 10 -52 14 -78 10 -23 -3 -59
-2 -81 2 -38 8 -41 12 -52 58 -15 59 -36 81 -85 90 -32 6 -38 4 -54 -19 l-17
-27 -23 22 c-13 12 -36 23 -52 24 l-28 2 29 -91 c26 -78 28 -94 18 -122 -20
-54 19 -109 109 -156 65 -34 353 -30 464 6 83 27 236 50 277 41 51 -11 33 -68
-76 -240 -18 -27 -58 -98 -89 -156 -49 -92 -63 -111 -111 -144 -71 -48 -163
-147 -202 -216 -37 -65 -54 -80 -116 -103 -216 -80 -6 -417 345 -555 90 -36
195 -56 363 -70 84 -8 163 -23 265 -51 142 -40 436 -87 595 -96 139 -8 231
-24 294 -50 47 -19 75 -25 103 -21 38 5 39 4 23 -13 -27 -30 -56 -31 -231 -4
-232 35 -457 41 -700 20 -104 -9 -337 -21 -519 -27 -181 -5 -357 -14 -390 -19
-33 -5 -180 -14 -328 -20 -369 -16 -519 -5 -889 64 -211 39 -362 56 -613 66
-218 9 -638 39 -846 60 -175 18 -252 64 -343 205 -78 120 -116 146 -371 250
-234 96 -309 138 -401 230 -109 109 -314 405 -380 549 l-27 59 52 101 c28 55
106 178 172 271 66 94 133 191 147 217 32 58 36 58 55 11 8 -21 51 -115 95
-208 44 -94 97 -211 118 -260 39 -92 76 -139 122 -156 184 -70 758 -144 817
-105 32 21 32 47 0 84 -34 40 -88 52 -242 52 -129 0 -290 19 -511 61 -137 26
-157 40 -200 142 -17 41 -67 151 -111 244 -115 245 -121 266 -121 425 l0 133
19 -40 c27 -58 91 -126 172 -181 69 -48 73 -49 148 -50 91 -1 162 -15 278 -55
48 -16 108 -29 134 -29 53 0 63 -7 130 -89 53 -65 109 -103 198 -132 111 -36
119 -52 141 -269 12 -122 17 -150 28 -150 27 0 142 293 142 361 0 27 0 28 55
22 50 -5 59 -3 83 19 15 14 37 31 48 37 23 11 93 129 95 159 1 9 5 -12 10 -48
4 -36 5 -90 2 -121 -5 -54 -4 -56 33 -92 24 -22 53 -39 74 -43 19 -3 47 -10
63 -16 19 -8 35 -7 56 1 23 10 38 9 81 -5 64 -21 83 -12 90 42 l5 39 27 -42
c15 -23 41 -50 58 -59 37 -22 37 -28 0 -83 -36 -53 -38 -96 -8 -148 l23 -38
11 63 c19 108 52 114 167 32 72 -52 82 -51 152 20 76 77 64 90 -14 15 l-61
-58 -40 29 c-146 105 -219 100 -220 -16 l-1 -45 -15 28 c-19 35 -12 67 26 126
31 47 29 70 -9 91 -10 5 -35 32 -55 60 -47 66 -66 66 -66 0 0 -58 -10 -62 -80
-34 -33 13 -46 14 -69 4 -22 -9 -38 -9 -63 -1 -18 6 -45 13 -60 16 -44 8 -101
69 -92 97 4 13 7 64 5 114 -2 77 1 97 18 126 13 20 23 61 27 99 l5 64 -19 -35
c-10 -20 -28 -49 -40 -65 -12 -17 -26 -52 -33 -80 -6 -27 -15 -57 -20 -65 -5
-8 -19 -34 -31 -57 -24 -44 -113 -113 -147 -113 -72 0 -292 85 -441 170 -58
33 -120 63 -137 66 -41 8 -41 13 -2 50 78 74 126 215 111 327 -5 40 -7 91 -3
112 9 59 35 57 200 -14 76 -34 150 -61 164 -61 43 0 39 -14 -32 -121 -92 -140
-114 -179 -104 -179 5 0 39 44 76 98 37 53 87 119 111 146 l43 49 164 33 c90
18 197 47 239 64 119 47 145 40 133 -35 -13 -83 68 -102 142 -34 25 23 47 40
49 38 32 -39 59 -109 64 -167 3 -47 13 -83 33 -121 19 -35 29 -69 29 -96 0
-46 12 -62 57 -74 18 -5 36 -23 56 -57 16 -27 44 -65 64 -85 28 -29 36 -49 46
-103 18 -107 36 -76 21 36 -5 33 -17 57 -41 84 -19 22 -49 63 -65 92 -21 36
-38 54 -56 58 -40 10 -52 23 -52 56 0 31 -23 93 -44 118 -7 8 -16 49 -20 90
-4 46 -16 95 -31 128 -40 87 -24 160 47 217 197 155 365 260 638 399 157 80
350 179 430 221 80 42 136 68 125 60 -51 -42 -276 -165 -542 -296 -309 -152
-317 -158 -267 -198 34 -27 28 -40 -38 -84 -75 -49 -87 -65 -64 -82 20 -15 50
-9 113 24 63 32 88 28 141 -24 62 -60 73 -58 118 23 53 96 104 170 119 176 8
3 45 -4 82 -16 146 -44 209 -19 169 69 -19 43 -16 57 34 142 23 40 13 61 -27
61 -36 0 -14 24 50 56 58 30 259 165 409 276 59 44 136 90 170 104 58 24 113
58 63 40 -166 -61 -220 -87 -865 -411 -785 -394 -1126 -541 -1385 -601 -208
-48 -636 10 -843 114 -241 121 -499 347 -522 458 l-12 55 99 102 c100 103 232
267 215 267 -5 0 -22 -16 -36 -35 -15 -19 -33 -35 -41 -35 -33 0 -248 -79
-269 -100 -37 -34 -76 -131 -83 -207 l-6 -68 -126 -151 c-162 -194 -186 -240
-185 -354 0 -47 8 -113 17 -148 13 -47 17 -105 17 -225 0 -89 5 -179 11 -200
14 -52 12 -57 -109 -224 -270 -374 -310 -456 -278 -558 31 -99 242 -403 365
-525 124 -123 180 -157 439 -270 273 -118 280 -123 373 -262 90 -133 171 -181
339 -199 156 -16 613 -49 830 -59 221 -10 410 -29 560 -55 47 -8 135 -24 195
-34 251 -45 434 -49 890 -20 88 5 396 14 685 18 289 5 568 15 620 21 121 15
315 8 490 -20 285 -45 290 -43 290 83 0 114 43 362 111 632 42 169 139 507
150 525 8 12 9 11 5 -5 -17 -73 -16 -295 2 -380 99 -465 423 -835 925 -1057
341 -150 858 -113 1267 92 368 184 672 523 824 917 195 504 189 1279 -14 1726
-79 175 -279 413 -440 526 -200 140 -464 245 -743 296 -80 15 -161 17 -97 3
498 -111 741 -226 975 -462 300 -303 406 -600 431 -1206 38 -942 -465 -1689
-1282 -1900 -251 -65 -611 -80 -719 -31 -11 5 -51 19 -90 30 -135 39 -345 153
-491 267 -261 203 -424 445 -505 751 -40 151 -34 446 12 569 12 32 38 109 59
169 21 61 74 191 118 290 84 190 145 347 157 405 4 19 11 37 14 40 4 3 22 57
41 120 19 63 57 158 84 210 27 52 62 121 79 153 84 162 430 415 735 538 46 18
79 35 74 37 -15 5 -185 -66 -294 -122 -134 -70 -263 -163 -382 -276 l-99 -95
38 70 c21 39 62 119 92 178 84 171 156 228 389 308 127 43 199 79 279 138 85
64 92 66 205 66 96 0 112 3 185 34 171 71 389 16 581 -148 93 -79 131 -101
174 -101 48 0 65 -14 108 -92 22 -40 79 -120 127 -178 117 -141 162 -206 230
-330 32 -58 88 -147 124 -198 112 -159 105 -142 111 -283 6 -147 17 -171 109
-235 143 -100 159 -131 168 -329 6 -140 1 -166 -52 -315 -27 -76 -28 -82 -9
-196 5 -34 2 -48 -21 -82 -24 -36 -76 -219 -115 -409 -6 -29 -13 -53 -14 -53
-16 0 -124 39 -183 66 -94 43 -105 38 -21 -9 118 -65 207 -84 263 -54 17 8 92
53 168 100 306 189 609 278 1324 392 390 61 529 91 978 206 335 86 517 129
548 129 4 0 4 -18 1 -40 -8 -50 13 -86 64 -107 62 -26 139 -11 419 81 277 91
499 154 738 211 83 20 467 114 855 209 388 96 795 195 905 221 235 55 365 95
420 129 l40 24 36 -102 c90 -256 247 -419 477 -494 145 -48 425 -53 602 -11
47 11 114 27 150 35 381 85 696 586 807 1279 25 157 25 556 0 710 -93 565
-347 939 -678 995 -285 48 -605 -192 -804 -605 -444 -920 -195 -2242 450
-2386 l60 -13 -40 -8 c-63 -11 -349 -9 -428 3 -268 42 -462 211 -576 503 -39
100 -40 105 -25 135 8 17 19 31 24 31 21 0 29 45 40 215 47 742 241 1319 644
1913 61 90 121 179 133 199 135 225 473 351 705 263 219 -82 544 -470 608
-725 60 -238 37 -689 -52 -1023 -29 -112 -31 -122 -22 -122 16 0 141 418 174
579 69 339 86 871 35 1066 -31 119 -112 263 -235 415 -69 87 -83 116 -114 242
-14 59 -39 134 -56 167 -122 243 -529 382 -1135 387 l-250 2 -95 35 c-52 19
-149 56 -215 82 -301 118 -375 134 -540 115 -158 -17 -322 12 -690 125 -353
108 -633 162 -973 188 -29 2 -55 6 -58 9 -2 3 62 111 144 239 82 129 157 248
167 266 10 18 22 30 27 27 10 -7 36 36 110 185 94 188 86 243 -59 393 l-75 76
-33 149 c-51 226 -253 875 -360 1158 -281 740 -748 1443 -1133 1704 -86 58
-245 141 -271 141 -14 0 -14 1 9 51 65 144 -48 239 -370 314 -78 18 -77 18
-117 0z m-6845 -716 c27 -11 27 -12 -2 -133 -25 -103 -25 -126 1 -126 24 0
135 30 168 45 42 19 251 81 301 90 l42 6 -39 -128 c-22 -70 -98 -321 -170
-558 -72 -236 -220 -700 -329 -1030 -109 -330 -246 -753 -304 -940 -209 -679
-488 -1656 -511 -1795 -9 -52 -21 -97 -27 -99 -25 -9 -48 -43 -48 -71 0 -22
-12 -44 -44 -78 -52 -56 -99 -129 -93 -145 2 -7 11 2 19 18 9 17 43 61 76 98
34 38 64 82 67 98 10 44 30 60 61 49 14 -6 42 -10 63 -10 l37 0 33 183 c74
406 124 572 356 1197 440 1183 811 2287 921 2743 16 66 33 116 39 114 5 -2 21
-34 34 -71 18 -52 39 -84 93 -143 164 -181 227 -448 258 -1089 12 -255 1 -413
-46 -666 -19 -106 -49 -272 -65 -368 -16 -96 -45 -254 -64 -351 -19 -96 -39
-238 -45 -315 -13 -174 -11 -163 -80 -439 -71 -282 -91 -397 -93 -538 l-2
-109 -440 -218 c-242 -120 -501 -253 -575 -296 -216 -123 -203 -119 -367 -118
-188 2 -181 -1 -227 89 -46 91 -55 96 -180 106 -140 11 -145 -3 -7 -17 127
-12 117 -5 177 -108 l34 -59 -136 6 c-76 4 -180 7 -232 7 -72 0 -93 3 -89 13
79 174 152 354 165 405 l17 65 -44 36 c-161 130 -191 175 -221 325 -25 124
-36 148 -105 226 -111 127 -148 243 -148 460 1 212 30 336 97 401 53 53 97 43
232 -48 49 -33 128 -86 176 -116 196 -126 212 -216 83 -473 -134 -268 -189
-334 -274 -334 -24 0 -41 -5 -41 -11 0 -8 24 -10 83 -5 77 5 85 4 132 -22 66
-36 73 -64 51 -215 -16 -113 -20 -164 -11 -156 17 18 47 285 37 328 -11 42 -8
56 21 153 41 131 40 131 66 73 12 -28 29 -49 41 -52 51 -13 41 -80 -59 -420
-45 -149 -81 -277 -80 -285 1 -22 18 29 99 297 43 143 85 276 94 295 35 84
282 1127 420 1770 72 341 116 553 241 1165 47 231 128 619 180 861 52 243 95
445 95 449 0 7 50 -2 88 -16z m628 -125 l52 -7 -23 -66 c-13 -36 -32 -88 -44
-115 -14 -31 -21 -66 -20 -100 4 -146 -498 -1678 -936 -2856 -232 -622 -283
-795 -366 -1230 -17 -91 -33 -171 -35 -177 -4 -15 -43 -17 -77 -4 l-24 9 24
109 c13 59 52 202 88 318 35 115 128 431 205 700 205 714 301 1024 512 1650
351 1043 471 1422 524 1653 31 136 22 127 120 116z m6319 -556 c-32 -68 -87
-181 -123 -253 -36 -71 -97 -202 -137 -290 -168 -369 -212 -461 -323 -672 -64
-122 -118 -220 -120 -219 -6 7 50 141 233 556 106 239 239 544 295 678 l103
242 61 44 c34 24 63 42 65 40 2 -1 -23 -58 -54 -126z m1443 -150 c172 -307
276 -541 382 -856 118 -352 229 -717 284 -929 l52 -204 71 -78 c112 -122 132
-176 99 -269 -27 -75 -118 -253 -141 -275 -20 -19 -657 -996 -963 -1477 -58
-91 -109 -166 -113 -168 -5 -2 -9 -8 -9 -13 0 -6 -60 -108 -133 -227 -325
-528 -918 -1550 -1116 -1924 -35 -65 -68 -118 -74 -118 -11 0 -131 63 -234
124 l-63 37 26 52 c97 192 614 1106 879 1557 425 720 524 881 850 1375 348
527 614 934 626 957 34 68 -53 -59 -423 -612 -462 -690 -511 -766 -731 -1130
-449 -746 -911 -1554 -1169 -2046 -38 -74 -72 -134 -75 -134 -3 0 -81 54 -172
119 -306 220 -538 336 -867 436 -335 102 -756 126 -1038 61 l-54 -13 33 76
c500 1159 642 1429 1186 2246 292 439 716 980 1309 1670 673 784 1237 1498
1450 1838 23 37 43 67 45 67 2 0 39 -64 83 -142z m-4334 -2713 c79 -39 166
-121 203 -192 52 -99 52 -99 -27 -204 -47 -63 -80 -121 -101 -174 -16 -44 -35
-93 -41 -108 -6 -15 -42 -55 -79 -89 -62 -55 -71 -68 -89 -127 -24 -75 -48
-106 -105 -132 -238 -110 -373 241 -242 626 44 129 155 322 220 383 66 62 158
68 261 17z m-506 -390 c-79 -232 -72 -456 19 -587 62 -91 178 -115 280 -59 58
32 57 32 68 -19 4 -19 27 -88 52 -152 l46 -117 -117 -130 c-290 -323 -617
-565 -858 -635 -230 -66 -399 -89 -808 -106 -140 -6 -356 -17 -480 -25 -480
-30 -924 -28 -1395 6 -252 18 -514 68 -728 139 -170 57 -215 83 -252 147 -37
64 -49 68 -29 8 18 -51 67 -98 129 -125 168 -72 516 -155 760 -182 111 -13
118 -15 95 -28 -79 -43 -530 48 -885 179 -207 76 -270 157 -235 300 l12 51 92
-3 93 -2 69 46 c324 217 1112 609 1809 902 138 58 349 146 470 197 603 253
739 280 1385 277 l436 -2 -28 -80z m5429 -90 c268 -30 541 -87 858 -180 205
-60 425 -113 503 -121 l65 -7 -164 -57 c-90 -32 -231 -83 -314 -115 l-149 -58
-161 33 c-200 40 -274 63 -500 155 -211 86 -277 105 -397 112 -90 6 -94 8 -79
32 18 28 230 -22 586 -139 238 -78 443 -135 452 -126 3 3 -15 10 -38 16 -115
30 -174 48 -439 135 -247 81 -418 127 -510 137 -31 4 -31 5 36 111 64 101 43
95 251 72z m-127 -274 c64 -17 122 -40 305 -116 169 -71 304 -110 473 -140 56
-10 99 -21 95 -25 -4 -4 -64 -31 -133 -60 -69 -29 -246 -107 -395 -175 -490
-222 -642 -265 -949 -265 -159 0 -152 -9 -81 105 l45 72 123 6 c360 19 536
176 375 336 -37 37 -168 111 -196 111 -7 0 13 39 44 88 l56 87 97 -6 c53 -3
116 -12 141 -18z m1916 -46 c34 -8 153 -50 265 -93 112 -44 235 -90 273 -102
l70 -23 -120 -32 c-65 -18 -197 -58 -292 -89 -282 -92 -425 -131 -714 -197
-325 -73 -274 -67 -383 -47 -262 50 -479 30 -804 -73 -329 -104 -585 -138
-816 -109 -54 6 -49 7 50 9 292 4 455 53 990 296 469 213 974 410 1180 459 79
19 224 19 301 1z m-6804 -122 c-5 -82 14 -138 88 -263 27 -46 68 -128 90 -181
65 -153 116 -183 234 -139 70 27 166 113 166 149 0 42 -31 81 -105 131 -91 62
-96 72 -12 25 134 -74 168 -121 142 -195 -57 -161 -312 -397 -390 -362 -34 16
-52 57 -75 168 -31 149 -48 208 -101 352 -77 207 -83 243 -58 320 11 34 22 62
23 62 1 0 0 -30 -2 -67z m4609 -29 c229 -115 232 -269 6 -343 -111 -36 -135
-37 -143 -7 -6 25 -44 64 -93 96 l-23 16 88 137 c48 75 89 137 91 137 2 0 35
-16 74 -36z m3383 -90 c231 -28 430 -83 564 -155 172 -92 240 -185 281 -389
19 -91 34 -119 170 -304 106 -144 159 -247 181 -353 31 -143 21 -668 -16 -888
-16 -97 -84 -388 -89 -383 -2 2 3 51 12 108 21 140 24 536 4 635 -42 211 -177
429 -390 629 -17 17 -31 33 -31 38 0 4 47 39 105 78 113 76 119 83 129 173 7
67 1 70 -53 28 -20 -16 -92 -67 -161 -114 l-124 -85 -50 28 c-207 117 -496 58
-698 -144 l-69 -68 -57 25 c-91 41 -166 49 -507 54 -316 5 -408 0 -870 -43
-65 -6 -74 -4 -108 19 -75 51 -273 67 -557 47 -96 -7 -192 -14 -214 -14 l-39
-1 -32 95 c-80 238 -141 319 -260 346 -23 5 -6 10 75 21 191 24 466 100 700
192 132 52 144 56 331 95 251 53 421 98 726 192 550 169 669 185 1047 138z
m-7909 -386 c9 -39 12 -74 8 -78 -4 -3 -24 -18 -45 -33 -20 -15 -85 -82 -144
-149 -60 -68 -154 -172 -210 -233 -268 -290 -364 -397 -364 -406 0 -5 -35 -9
-77 -9 -43 0 -208 -7 -366 -15 -396 -20 -1229 -21 -1542 -1 -132 8 -362 16
-512 18 l-272 2 -29 41 -28 40 535 0 c698 0 1503 26 1689 55 182 29 376 78
470 121 181 81 500 328 665 514 44 49 105 118 136 152 30 34 58 60 62 57 4 -2
15 -36 24 -76z m5771 30 c93 -11 111 -19 77 -33 -187 -76 -527 -175 -701 -205
-139 -24 -139 -24 -120 -2 20 21 38 86 38 133 l0 36 93 26 c81 23 150 37 237
51 58 8 288 5 376 -6z m-736 -152 c-6 -30 -20 -66 -31 -80 -11 -14 -17 -31
-13 -37 4 -7 3 -9 -4 -5 -12 7 -50 -39 -107 -129 -37 -58 -38 -59 -48 -35 -5
14 -20 47 -33 73 -18 37 -22 58 -18 87 8 49 -7 76 -53 91 l-37 12 99 23 c55
13 134 34 175 47 85 27 86 27 70 -47z m-5014 -47 c-6 -9 -32 -43 -59 -75 -89
-110 -120 -214 -110 -369 l4 -70 -115 -117 c-64 -65 -116 -120 -116 -123 0 -4
26 -5 58 -4 128 7 222 0 222 -16 0 -9 -9 -15 -22 -15 -150 -1 -710 -34 -833
-49 -171 -21 -307 -34 -530 -51 -232 -18 -363 -37 -735 -111 -306 -61 -383
-72 -554 -84 -110 -8 -201 -13 -204 -11 -10 11 81 29 138 27 126 -4 252 25
471 110 70 27 149 53 175 59 92 19 95 20 88 32 -12 19 -142 2 -239 -32 -115
-39 -327 -101 -331 -97 -5 5 301 131 403 166 91 31 92 31 303 31 116 0 351 7
523 14 172 8 411 18 531 22 l219 6 66 67 c171 172 536 584 609 688 29 41 38
49 43 35 4 -9 2 -24 -5 -33z m4095 16 c131 -28 205 -71 296 -176 61 -68 82
-100 87 -128 8 -53 44 -101 96 -128 25 -13 45 -28 44 -33 -1 -6 -2 -16 -2 -23
-1 -7 -34 -51 -73 -98 -39 -46 -84 -103 -100 -125 -25 -36 -34 -42 -75 -47
-70 -7 -74 -4 -74 67 0 33 -9 124 -20 201 -32 222 -30 238 30 298 60 60 59 67
-2 28 -32 -20 -50 -41 -63 -72 l-18 -44 -17 86 c-31 153 -51 162 -70 33 -22
-156 -8 -274 46 -387 50 -105 49 -170 -5 -226 -74 -77 -72 -158 6 -175 48 -10
53 -21 52 -116 0 -64 0 -65 -17 -40 -27 42 -112 121 -122 115 -6 -4 -10 -60
-10 -127 0 -260 -31 -375 -182 -666 -83 -160 -111 -227 -168 -402 -80 -243
-101 -286 -245 -515 -196 -312 -315 -448 -511 -582 -223 -152 -350 -195 -939
-312 -165 -33 -354 -72 -420 -86 -514 -112 -820 -57 -933 167 -67 132 -94 269
-99 494 l-5 201 81 42 c116 60 207 81 360 81 155 0 151 14 -11 37 -131 19
-249 11 -366 -26 l-62 -19 0 47 c0 25 3 90 7 145 l6 99 18 -35 c50 -98 152
-140 464 -188 147 -23 263 -50 348 -79 91 -32 177 -73 172 -82 -10 -15 -338
-117 -575 -179 -305 -79 -462 -130 -400 -130 22 0 575 146 736 194 362 109
1077 433 1334 604 293 194 516 472 720 894 128 267 237 592 256 763 9 86 -9
59 -30 -45 -110 -531 -413 -1100 -756 -1423 -167 -157 -456 -319 -1002 -561
-270 -119 -246 -113 -308 -75 -100 62 -220 96 -490 140 -287 46 -348 66 -423
137 -50 49 -61 93 -47 190 34 229 95 486 166 705 l46 140 78 -6 c372 -29 908
-245 1254 -505 181 -135 308 -218 446 -287 l67 -34 48 87 c382 688 1276 2202
1301 2202 1 0 35 -7 75 -15z m-9060 -187 c-76 -75 -135 -176 -166 -281 -13
-44 -21 -57 -36 -57 -24 0 -24 -4 11 88 47 122 171 290 214 291 16 1 11 -8
-23 -41z m4728 -40 c-279 -317 -479 -528 -498 -527 -12 0 -9 5 8 16 12 9 75
76 139 147 110 125 403 435 411 436 1 0 -26 -32 -60 -72z m9024 -99 c-8 -29
-26 -46 -123 -110 l-114 -77 -33 25 c-18 14 -33 29 -33 32 0 4 51 40 113 79
61 39 130 86 152 105 l40 35 3 -28 c2 -15 -1 -43 -5 -61z m-4223 -51 c58 -64
60 -70 10 -33 -33 24 -70 71 -70 89 0 5 1 7 3 5 2 -2 27 -30 57 -61z m-9092
-189 c114 -38 288 -91 387 -116 159 -40 261 -72 185 -59 -14 3 -61 7 -105 11
-356 26 -775 132 -775 196 0 19 34 39 66 39 19 0 128 -32 242 -71z m4400 -195
c-2 -1 -43 2 -92 8 -49 5 -98 7 -108 5 -9 -3 24 40 75 94 l92 99 18 -101 c9
-56 16 -103 15 -105z m8364 56 c282 -87 496 -429 585 -935 25 -145 25 -595 0
-750 -104 -632 -389 -1096 -747 -1215 -114 -38 -252 -27 -365 29 -493 244
-694 1224 -421 2054 135 411 366 715 618 812 84 32 235 35 330 5z m-16493
-497 c-13 -15 -33 -34 -44 -42 -11 -9 -42 -35 -70 -59 -27 -25 -10 -6 39 42
87 84 123 113 75 59z m-409 -826 c0 -23 7 -53 16 -65 13 -19 14 -31 5 -67 -15
-60 -14 -149 3 -188 35 -85 432 -347 524 -347 l34 0 -7 -52 c-8 -60 -27 -103
-50 -111 -20 -8 -19 -30 5 -77 28 -55 25 -90 -12 -146 -54 -80 -111 -88 -268
-38 -42 13 -106 28 -144 33 -37 5 -70 12 -73 14 -2 3 21 32 53 66 50 54 65 64
133 86 l76 25 -61 -4 c-79 -5 -109 -21 -193 -107 -66 -67 -73 -71 -103 -65
-107 21 -274 165 -280 240 -4 66 38 175 126 326 44 74 40 93 -4 24 -43 -67
-140 -262 -141 -282 -1 -35 -16 24 -29 111 -14 101 -9 152 24 222 33 72 333
445 357 445 5 0 9 -19 9 -43z m2120 -323 c0 -15 -478 -215 -512 -214 -7 1 43
22 112 49 131 51 347 142 377 160 21 12 23 13 23 5z m11040 -519 c0 -19 -5
-25 -21 -25 -12 0 -36 -16 -53 -35 -18 -19 -38 -35 -44 -35 -6 0 -19 -11 -27
-24 -10 -15 -29 -26 -52 -29 -20 -4 -45 -15 -57 -26 -12 -10 -32 -21 -46 -23
-23 -3 -25 -7 -22 -49 2 -29 -2 -50 -10 -56 -15 -11 -137 -43 -166 -43 -11 0
-42 -18 -68 -40 -27 -22 -53 -40 -57 -40 -19 0 32 67 73 97 116 84 142 106
166 146 35 55 38 57 113 57 59 0 65 2 95 34 17 19 45 38 61 41 17 4 44 23 62
41 38 40 53 43 53 9z m-9168 -168 c44 -2 50 -24 21 -75 -15 -27 -16 -36 -4
-82 7 -28 11 -54 7 -57 -6 -7 -26 41 -26 63 0 29 -30 72 -82 118 l-53 46 50
-6 c28 -3 67 -6 87 -7z m-2646 -102 c-21 -49 -35 -73 -36 -57 0 15 38 92 45
92 3 0 -1 -16 -9 -35z m-1371 -636 c97 -29 402 -71 550 -75 211 -6 238 -10
269 -39 31 -28 33 -50 7 -64 -53 -29 -721 66 -811 115 -53 29 -107 97 -63 79
10 -4 31 -11 48 -16z m4570 -439 c175 -83 275 -132 315 -155 84 -48 170 -27
170 41 l0 36 51 -46 c66 -59 90 -65 132 -34 28 22 40 24 89 20 57 -4 57 -4 79
32 13 22 31 38 48 42 14 3 35 10 45 16 15 8 18 7 14 -4 -3 -7 -29 -105 -58
-217 -45 -167 -58 -204 -74 -211 -12 -5 -37 -20 -56 -34 -27 -21 -41 -25 -68
-20 -23 5 -44 1 -67 -12 l-34 -18 -28 25 c-21 19 -47 29 -100 38 -96 15 -91
16 -103 -29 -12 -45 -25 -51 -36 -17 -4 12 -26 45 -49 72 -24 28 -48 67 -53
88 -17 62 -75 106 -138 107 -60 0 -69 6 -128 88 -33 45 -46 71 -46 96 0 19 -8
54 -18 78 -11 24 -22 61 -26 82 l-7 39 43 -37 c24 -21 70 -50 103 -66z m-866
-407 c85 6 88 6 122 -22 81 -67 187 -107 220 -83 13 9 37 15 53 13 16 -1 40 3
52 10 21 11 27 10 48 -10 23 -21 27 -22 78 -11 64 14 136 -2 191 -44 25 -19
46 -26 80 -26 29 0 59 -8 79 -20 26 -16 51 -20 121 -20 90 0 97 4 76 42 -10
18 -6 18 33 -7 75 -46 108 -57 137 -46 71 26 172 22 269 -11 l93 -33 -7 -45
c-9 -59 -7 -58 -60 -66 -44 -6 -46 -5 -80 35 -20 23 -44 46 -55 51 -32 17
-200 20 -231 4 -15 -8 -39 -14 -53 -14 -42 0 -44 -29 -6 -90 5 -8 12 -22 15
-30 3 -8 14 -26 23 -40 15 -21 12 -20 -20 7 -20 18 -43 30 -51 27 -10 -4 -20
6 -29 28 -19 45 -60 72 -95 62 -15 -4 -51 -8 -79 -8 -48 -1 -53 1 -53 21 0 26
-70 103 -93 103 -8 0 -21 7 -28 16 -26 31 -119 2 -119 -38 0 -16 -3 -17 -21
-8 -11 7 -27 9 -34 6 -8 -3 -15 0 -17 6 -2 6 -13 12 -24 13 -11 0 -30 11 -42
23 -12 12 -30 22 -40 22 -10 0 -23 5 -29 11 -9 9 -24 5 -59 -16 -42 -24 -48
-26 -56 -11 -12 22 -34 20 -69 -5 -29 -20 -31 -20 -49 -4 -17 16 -25 16 -64 5
-58 -16 -66 -9 -66 55 0 64 -7 71 -56 50 -49 -20 -67 -19 -60 3 4 12 -3 27
-20 43 -14 13 -35 37 -47 53 l-20 29 27 -18 c23 -15 41 -17 115 -12z m1675
-172 c-10 -45 -21 -81 -25 -81 -5 0 -43 14 -85 31 -43 16 -89 30 -103 30 -51
0 -156 -9 -183 -16 -14 -4 -35 -2 -46 4 -20 10 -20 12 -4 53 9 24 17 44 18 46
8 12 143 -24 165 -44 29 -28 56 -30 87 -8 16 11 34 14 60 10 32 -5 44 -1 82
28 25 19 46 33 48 31 2 -2 -4 -39 -14 -84z"/>
<path data-n="1" pathLength="100" d="M6492 15485 c-77 -551 -177 -1086 -332 -1783 -82 -369 -196 -872
-206 -907 -4 -13 -3 -17 4 -10 5 6 22 62 37 125 169 730 293 1279 335 1495 31
158 27 149 57 125 95 -74 226 55 262 258 6 34 16 89 22 123 5 33 30 104 54
157 76 168 77 222 3 262 -76 40 -161 -4 -188 -98 -23 -79 -24 -173 -1 -230 57
-144 -18 -354 -134 -375 l-31 -6 32 182 c70 396 127 808 122 880 -2 25 -16
-52 -36 -198z"/>
<path data-n="2" pathLength="100" d="M7230 14225 c-218 -69 -555 -647 -694 -1190 -49 -194 -112 -564 -91
-544 2 3 20 90 40 195 81 428 157 662 320 984 231 455 446 640 574 495 59 -68
88 -264 78 -530 -9 -213 -27 -330 -141 -882 -59 -285 -163 -620 -280 -900 -30
-73 -51 -133 -47 -133 11 0 135 302 190 465 55 159 136 460 150 550 4 33 31
173 59 310 81 395 100 591 83 830 -21 291 -93 396 -241 350z"/>
<path data-n="3" pathLength="100" d="M6948 13617 c-107 -82 -362 -613 -443 -923 -42 -160 -67 -446 -45
-514 5 -16 8 13 9 82 3 343 85 621 317 1079 110 216 168 289 233 289 41 0 33
-64 -49 -385 -191 -745 -231 -1278 -107 -1413 47 -50 82 -9 51 59 -26 60 -44
56 -19 -4 32 -78 -5 -81 -40 -4 -88 192 -44 648 126 1317 44 172 81 337 82
365 3 90 -39 109 -115 52z"/>
<path data-n="4" pathLength="100" d="M6566 12212 c-67 -106 -75 -284 -19 -403 77 -165 214 -212 328 -115
54 46 40 54 -25 14 -84 -52 -155 -41 -229 34 -109 111 -129 344 -39 471 11 16
18 31 15 34 -3 2 -17 -13 -31 -35z"/>
<path data-n="5" pathLength="100" d="M5573 10856 c4 -9 14 -63 23 -118 20 -124 37 -171 29 -78 -8 85 -34
198 -47 207 -8 4 -9 0 -5 -11z"/>
<path data-n="6" pathLength="100" d="M15244 14093 c-30 -76 -274 -548 -352 -683 -30 -52 -91 -149 -136
-215 -57 -86 -88 -144 -108 -203 -15 -46 -43 -105 -61 -130 -44 -61 -64 -100
-93 -185 -13 -38 -38 -92 -55 -120 -17 -28 -42 -80 -56 -115 -33 -90 -46 -113
-115 -205 -33 -45 -78 -115 -101 -156 -23 -42 -73 -112 -111 -156 -51 -59 -83
-110 -124 -195 -589 -1234 -633 -1316 -811 -1503 -156 -163 -169 -192 -226
-468 -19 -96 -51 -233 -70 -305 -33 -124 -41 -163 -31 -153 7 6 97 343 140
519 48 195 72 241 204 381 61 64 137 156 169 205 82 122 320 600 578 1160 122
265 116 254 193 338 37 41 88 112 114 159 26 47 73 118 104 158 60 79 94 140
114 204 7 22 32 76 55 120 24 44 48 100 55 125 15 57 43 111 92 180 21 30 46
79 55 110 21 74 38 106 137 257 105 160 219 372 356 659 57 120 106 221 108
224 7 10 25 -37 103 -273 44 -136 85 -250 90 -253 5 -3 7 1 4 8 -2 7 -36 117
-76 243 -98 315 -114 345 -145 268z"/>
<path data-n="7" pathLength="100" d="M17888 10930 c-129 -39 -189 -166 -142 -302 88 -258 503 -235 504 28
0 173 -198 323 -362 274z m159 -23 c203 -75 248 -347 70 -422 -76 -32 -190
-12 -260 46 -128 106 -126 303 5 368 48 24 132 27 185 8z"/>
<path data-n="8" pathLength="100" d="M18688 10465 c-174 -44 -359 -163 -473 -304 -82 -101 -67 -97 38 11
295 305 666 377 925 180 17 -13 32 -20 32 -14 0 17 -104 81 -177 109 -85 32
-253 41 -345 18z"/>
<path data-n="9" pathLength="100" d="M14481 10038 c-21 -620 -47 -933 -94 -1128 l-23 -95 -84 0 c-47 0
-147 3 -222 8 -217 12 -162 -8 77 -28 118 -10 215 -22 215 -26 0 -38 -97 -284
-175 -444 -235 -479 -464 -746 -841 -975 -164 -100 -269 -134 -680 -221 -132
-27 -324 -68 -429 -91 -312 -67 -444 -59 -640 39 -139 70 -173 115 -265 346
-38 97 -60 131 -60 93 0 -35 62 -252 87 -302 50 -103 154 -172 349 -230 153
-45 268 -40 594 30 146 32 342 72 435 91 435 85 606 160 891 391 329 266 664
813 790 1289 48 183 62 294 74 580 5 138 14 345 20 460 12 258 13 575 2 575
-5 0 -14 -163 -21 -362z"/>
<path data-n="10" pathLength="100" d="M12208 8933 c-31 -36 -121 -180 -145 -233 -20 -44 -64 -190 -120
-395 -4 -14 -2 -17 5 -10 10 10 41 109 80 255 32 117 130 305 198 379 2 3 24
-16 48 -42 59 -61 140 -100 256 -122 53 -11 24 8 -45 29 -88 27 -148 60 -199
111 -52 50 -57 52 -78 28z"/>
<path data-n="11" pathLength="100" d="M11945 7796 l-160 -53 -40 20 c-105 53 -299 9 -468 -105 -85 -58 -63
-57 39 2 189 108 338 134 443 76 20 -11 35 -10 105 11 166 48 306 105 254 102
-7 0 -85 -24 -173 -53z"/>
<path data-n="12" pathLength="100" d="M11475 7696 c-74 -24 -150 -61 -200 -96 -29 -21 -29 -22 -5 -17 14 3
61 21 106 41 89 39 219 76 270 76 18 0 36 5 39 10 12 20 -137 10 -210 -14z"/>
<path data-n="13" pathLength="100" d="M18687 9754 c-739 -179 -1035 -1844 -428 -2407 493 -456 1171 315
1171 1333 0 678 -341 1172 -743 1074z m135 -85 c215 -45 403 -282 535 -676 41
-124 46 -150 51 -255 11 -275 -51 -622 -160 -885 l-30 -72 -57 72 c-140 175
-431 421 -600 507 -113 57 -134 122 -45 136 64 9 416 -1 542 -16 120 -15 116
-8 77 -144 -24 -83 -71 -185 -116 -253 -11 -18 -17 -33 -11 -33 38 0 148 246
159 357 l6 55 94 -7 c95 -7 132 6 53 19 -22 3 -62 11 -88 17 l-48 10 10 55
c10 59 -12 322 -40 473 -15 83 -18 74 55 153 19 21 32 40 29 43 -3 3 -45 -36
-94 -87 -214 -224 -362 -355 -476 -423 -52 -31 -185 -85 -209 -85 -5 0 31 46
82 103 113 128 183 231 254 378 66 137 145 373 151 449 4 48 0 39 -30 -65 -88
-308 -199 -522 -381 -731 -113 -129 -111 -128 -80 -66 81 164 90 468 20 767
-20 86 -22 78 34 118 119 86 203 109 313 86z m-351 -269 c15 -80 23 -170 26
-295 6 -206 -3 -263 -64 -404 -20 -47 -36 -91 -36 -99 0 -7 -10 -17 -21 -22
-53 -20 -71 -74 -55 -164 5 -27 -77 -69 -218 -111 l-108 -33 -8 56 c-17 116
13 388 55 502 11 30 35 96 53 145 42 117 91 225 102 225 14 0 75 -165 87 -235
l7 -40 -46 52 c-47 53 -105 101 -105 86 0 -4 25 -37 56 -73 67 -78 114 -167
114 -214 0 -63 18 -48 26 21 7 66 0 397 -12 538 l-5 70 57 63 c31 35 60 60 65
55 4 -4 18 -60 30 -123z m603 -467 c67 -71 113 -228 104 -354 -3 -38 -7 -72
-10 -74 -2 -3 -42 0 -89 6 -46 6 -194 12 -329 14 -135 1 -255 3 -267 4 -14 1
-28 12 -37 30 -20 37 -13 43 89 75 123 39 222 103 393 257 48 43 92 78 99 79
6 0 28 -17 47 -37z m-1081 -773 c56 -332 125 -520 239 -654 40 -47 42 -48 85
-41 62 9 83 -11 83 -79 0 -85 15 -39 48 144 52 296 51 384 -8 607 -59 222 -43
222 68 2 113 -223 159 -353 201 -564 30 -151 54 -239 74 -263 17 -21 18 -7 2
39 -9 24 -27 106 -40 182 -49 281 -91 402 -232 672 -44 86 -81 175 -71 175 42
0 310 -181 465 -314 l112 -96 7 -56 c16 -133 2 -170 -129 -334 -42 -52 -74
-96 -72 -98 16 -16 201 165 272 266 26 37 48 69 50 71 2 3 16 -8 33 -24 l29
-28 -26 -51 c-77 -151 -232 -329 -350 -400 -100 -59 -221 -84 -323 -66 -351
64 -591 571 -554 1170 l8 135 7 -150 c4 -82 14 -193 22 -245z m375 128 c5
-139 -65 -297 -194 -436 -68 -74 -79 -101 -26 -63 97 69 203 232 236 361 l13
55 16 -70 c44 -195 48 -324 15 -530 -12 -77 -23 -141 -24 -143 -1 -2 -14 4
-28 13 -23 15 -30 16 -58 4 -31 -13 -32 -12 -75 36 -106 121 -213 424 -239
676 l-6 66 62 7 c71 8 168 42 226 79 67 42 79 34 82 -55z"/>
<path data-n="14" pathLength="100" d="M4125 10176 c-251 -90 -428 -181 -790 -406 -318 -198 -387 -237 -617
-350 -113 -56 -228 -120 -254 -142 -78 -64 -237 -219 -231 -225 20 -20 143 50
236 133 74 67 66 101 -12 49 -56 -39 -45 -22 21 29 31 24 140 86 242 136 102
51 214 108 250 128 54 31 75 37 125 38 80 0 117 21 262 145 261 223 441 327
776 449 64 24 117 47 117 52 0 4 -1 8 -2 7 -2 0 -57 -19 -123 -43z"/>
<path data-n="15" pathLength="100" d="M18059 9932 c-116 -183 -172 -277 -190 -318 -31 -70 -15 -63 18 8 17
35 70 126 119 203 50 77 93 146 98 153 4 6 4 12 -1 12 -4 0 -24 -26 -44 -58z"/>
<path data-n="16" pathLength="100" d="M7732 9724 c-609 -66 -949 -137 -2045 -425 -1009 -264 -1422 -401
-1852 -614 -268 -133 -459 -235 -452 -242 3 -2 79 35 169 83 598 320 996 461
2103 749 1148 298 1511 372 2233 450 34 4 62 11 62 16 0 5 -1 8 -2 8 -2 -1
-99 -12 -216 -25z"/>
<path data-n="17" pathLength="100" d="M16852 9633 c-22 -38 -67 -116 -101 -175 -309 -539 -483 -780 -771
-1069 -244 -244 -416 -372 -684 -508 -60 -30 -104 -57 -97 -59 16 -5 206 91
329 168 353 221 723 616 1014 1083 86 138 340 579 351 610 13 35 -3 15 -41
-50z"/>
<path data-n="18" pathLength="100" d="M15356 9618 c-3 -13 -7 -90 -10 -173 -11 -308 -60 -470 -218 -733
-68 -113 -54 -115 22 -2 110 163 163 293 195 475 24 138 34 549 11 433z"/>
<path data-n="19" pathLength="100" d="M8941 9583 c-29 -64 -26 -156 8 -225 26 -55 31 -76 31 -140 0 -67 3
-79 29 -116 56 -76 78 -70 29 9 -29 48 -32 62 -34 134 -1 70 -5 89 -29 129
-26 44 -27 53 -22 124 3 42 8 85 12 95 12 28 -11 19 -24 -10z"/>
<path data-n="20" pathLength="100" d="M15030 9382 l0 -188 -34 -95 c-49 -136 -51 -141 -84 -193 -16 -25
-40 -72 -53 -104 -44 -111 -206 -344 -361 -519 -132 -149 -189 -227 -312 -435
-125 -210 -131 -218 -156 -211 -14 4 -27 -9 -54 -50 -19 -31 -69 -92 -110
-137 -75 -82 -106 -140 -106 -201 0 -88 151 -24 317 134 116 110 405 550 542
825 75 149 106 202 80 135 -81 -210 -109 -300 -85 -272 10 11 93 206 122 288
41 110 79 192 168 356 119 217 146 340 146 651 0 129 -4 204 -10 204 -6 0 -10
-69 -10 -188z"/>
<path data-n="21" pathLength="100" d="M3199 9429 c-201 -165 -641 -579 -629 -592 3 -3 105 90 226 207 122
117 291 270 375 341 185 154 176 145 163 145 -6 0 -66 -46 -135 -101z"/>
<path data-n="22" pathLength="100" d="M7452 9297 c-108 -109 -113 -148 -28 -207 93 -63 104 -150 21 -150
-14 0 -45 -18 -73 -42 -27 -24 -57 -48 -68 -54 -10 -7 -16 -14 -13 -18 11 -11
74 17 112 51 20 18 47 33 60 33 102 0 76 158 -35 216 -47 24 -38 60 38 153 37
45 65 84 62 86 -2 2 -36 -28 -76 -68z"/>
<path data-n="23" pathLength="100" d="M9435 9284 c-23 -9 -70 -14 -110 -14 -108 2 -112 2 -143 -25 -29 -24
-81 -139 -69 -152 4 -3 27 13 52 36 43 40 47 41 112 41 42 0 79 6 98 16 43 23
130 38 207 38 78 -1 78 6 -2 46 -66 33 -87 35 -145 14z m113 -22 c8 -6 -8 -13
-45 -21 -32 -7 -78 -20 -103 -28 -25 -9 -79 -18 -120 -22 -41 -3 -85 -12 -97
-19 -32 -18 -29 1 6 40 l29 33 89 -3 c62 -2 99 2 123 12 38 17 98 20 118 8z"/>
<path data-n="24" pathLength="100" d="M6280 9246 c-219 -64 -741 -268 -726 -283 3 -3 80 27 173 65 279 117
470 183 701 242 23 6 42 13 42 15 0 12 -57 1 -190 -39z"/>
<path data-n="25" pathLength="100" d="M7114 9268 c-141 -105 -148 -170 -14 -123 57 20 67 19 66 -7 -1 -19
5 -24 32 -26 33 -3 44 11 17 22 -12 4 -13 10 -6 25 19 35 -8 44 -84 26 -36 -8
-69 -15 -73 -15 -3 0 18 25 48 55 56 57 64 81 14 43z"/>
<path data-n="26" pathLength="100" d="M7665 9223 c-30 -8 -83 -51 -90 -73 -4 -11 -22 -27 -41 -35 -39 -16
-44 -31 -13 -40 36 -12 85 -8 118 10 40 20 60 14 89 -30 27 -43 43 -44 74 -6
41 51 105 74 128 46 38 -45 133 -105 168 -105 39 0 89 -25 135 -68 42 -40 32
-13 -30 78 -46 67 -68 89 -105 107 -26 13 -56 35 -66 48 -33 42 -288 89 -367
68z m213 -37 c75 -15 120 -30 135 -43 12 -12 40 -30 62 -41 42 -21 76 -54 114
-110 l23 -32 -34 19 c-18 10 -53 22 -78 25 -34 5 -61 20 -116 66 -40 33 -79
60 -86 60 -18 0 -98 -51 -117 -73 -19 -24 -23 -22 -54 28 -30 48 -63 59 -87
31 -14 -18 -76 -40 -88 -32 -15 9 75 100 111 113 48 17 90 15 215 -11z"/>
<path data-n="27" pathLength="100" d="M8724 9074 c-22 -26 -59 -68 -84 -94 -25 -25 -57 -62 -72 -81 -14
-19 -47 -46 -72 -60 -59 -31 -59 -42 1 -22 56 19 193 149 237 225 29 50 56 63
121 56 17 -2 32 2 35 7 3 6 -21 11 -61 13 l-67 3 -38 -47z"/>
<path data-n="28" pathLength="100" d="M6450 8929 c-47 -10 -149 -23 -227 -28 -157 -11 -259 -39 -392 -106
-38 -19 -127 -58 -198 -86 -209 -83 -359 -170 -712 -412 -239 -165 -456 -291
-553 -322 -18 -5 -19 -8 -6 -12 46 -12 243 96 608 336 390 257 476 306 665
378 49 19 149 61 221 93 169 76 215 87 418 100 263 17 415 -8 561 -93 143 -83
222 -187 232 -304 9 -99 -51 -230 -242 -529 -156 -243 -143 -221 -122 -205 37
29 269 392 326 511 128 265 134 425 19 547 -121 127 -369 182 -598 132z"/>
<path data-n="29" pathLength="100" d="M14563 8810 c-39 -45 -123 -310 -123 -386 0 -74 47 -27 108 108 28
62 70 108 99 108 31 0 75 33 107 82 41 61 39 68 -20 68 -25 0 -62 9 -84 20
-49 25 -66 25 -87 0z"/>
<path data-n="30" pathLength="100" d="M10750 8800 c0 -5 17 -36 39 -68 63 -93 213 -423 199 -438 -2 -2 -39
56 -81 129 -65 111 -137 208 -137 184 0 -14 28 -68 82 -160 86 -143 168 -307
217 -432 24 -60 48 -114 53 -120 18 -18 -2 85 -33 170 -16 44 -45 132 -64 197
-55 184 -138 366 -224 492 -33 48 -51 64 -51 46z"/>
<path data-n="31" pathLength="100" d="M6475 8740 c-71 -27 -173 -65 -225 -85 -119 -45 -191 -64 -291 -75
-44 -5 -85 -15 -92 -22 -19 -19 -114 -144 -126 -165 -9 -17 -11 -16 -33 5 -14
12 -37 22 -53 22 l-28 0 41 33 c120 96 322 291 311 301 -2 2 -49 -36 -104 -86
-55 -49 -170 -136 -256 -193 -211 -141 -290 -230 -277 -315 3 -20 8 -15 42 40
69 112 149 174 242 187 45 6 48 4 75 -28 l28 -34 28 27 c39 37 73 48 151 48
66 0 67 0 114 -47 41 -41 54 -47 86 -47 59 2 294 80 340 114 46 33 58 67 20
55 -13 -4 -48 -9 -80 -12 -52 -5 -57 -3 -73 20 -35 54 -2 105 108 162 l56 30
23 -22 c27 -25 146 -88 153 -81 3 2 -8 22 -25 44 -35 46 -37 71 -9 118 40 69
26 69 -146 6z"/>
<path data-n="32" pathLength="100" d="M15900 8739 c-60 -44 -81 -73 -33 -44 40 24 111 84 98 84 -5 0 -35
-18 -65 -40z"/>
<path data-n="33" pathLength="100" d="M16155 8719 c-22 -17 -74 -48 -115 -69 -101 -52 -299 -245 -349 -338
-42 -82 -34 -91 15 -15 20 32 64 83 97 113 33 30 87 83 121 117 42 43 82 71
128 92 68 31 131 78 149 112 14 27 0 23 -46 -12z"/>
<path data-n="34" pathLength="100" d="M10510 8614 c0 -4 24 -32 54 -64 198 -215 300 -396 406 -727 29 -90
57 -163 62 -163 5 0 7 8 4 18 -2 9 -20 78 -40 152 -59 229 -105 340 -198 478
-105 156 -288 350 -288 306z"/>
<path data-n="35" pathLength="100" d="M15680 8596 c0 -7 -10 -20 -22 -28 -14 -10 -26 -32 -33 -64 -10 -47
-11 -49 -50 -54 -55 -8 -61 -13 -95 -80 -16 -32 -61 -96 -99 -142 -38 -45 -67
-85 -65 -88 3 -2 13 5 22 17 9 12 44 51 77 87 33 36 74 92 90 123 27 52 34 58
65 61 46 5 58 16 72 69 6 27 20 50 34 60 24 15 33 53 14 53 -5 0 -10 -6 -10
-14z"/>
<path data-n="36" pathLength="100" d="M2533 8583 c-10 -25 65 -86 142 -117 114 -46 126 -27 37 56 -75 69
-164 100 -179 61z"/>
<path data-n="37" pathLength="100" d="M7260 8508 c-5 -13 -14 -56 -20 -96 -14 -97 -54 -209 -86 -243 -18
-19 -25 -35 -22 -55 3 -27 6 -29 54 -32 l51 -3 23 -87 c25 -96 43 -132 65
-132 14 0 14 3 1 23 -23 34 -34 306 -21 492 9 127 -16 201 -45 133z"/>
<path data-n="38" pathLength="100" d="M2470 8505 c0 -18 63 -61 157 -109 115 -57 137 -46 51 27 -88 75
-127 97 -169 97 -27 0 -39 -4 -39 -15z"/>
<path data-n="39" pathLength="100" d="M15120 8490 c6 -11 46 -36 90 -57 44 -20 80 -42 80 -49 0 -32 -216
-302 -315 -394 -38 -36 -117 -113 -175 -171 -58 -59 -139 -132 -181 -162 -119
-88 -379 -383 -379 -430 0 -13 -7 -21 103 115 92 113 202 219 328 315 42 32
106 94 144 138 37 44 100 109 139 145 86 77 125 120 239 262 125 156 143 198
90 219 -81 32 -125 54 -140 71 -22 24 -36 23 -23 -2z"/>
<path data-n="40" pathLength="100" d="M9293 8380 c-495 -107 -928 -514 -1101 -1035 -250 -751 44 -1591 658
-1884 169 -81 273 -104 465 -105 300 -2 515 91 745 323 332 335 470 708 470
1272 0 560 -101 897 -339 1128 -130 126 -347 256 -496 297 -95 26 -290 28
-402 4z m458 -46 c231 -69 493 -297 606 -529 53 -110 63 -166 63 -365 l0 -155
-43 -26 c-23 -15 -69 -34 -102 -44 -33 -9 -195 -70 -360 -135 -345 -136 -412
-158 -504 -166 -65 -6 -67 -6 -79 20 -18 41 22 92 147 188 199 152 276 241
480 547 100 150 180 275 177 278 -6 6 -183 -207 -297 -359 -147 -195 -382
-425 -518 -506 l-38 -22 33 90 c44 115 71 274 86 505 8 121 16 185 23 185 6 0
38 -16 71 -36 32 -20 82 -50 109 -66 28 -16 73 -46 102 -65 36 -24 57 -33 72
-28 26 8 121 134 121 161 0 82 -284 315 -449 366 -41 13 -51 32 -51 99 0 34
-2 35 150 -13 198 -63 344 -142 490 -265 43 -37 56 -43 58 -30 12 62 -181 233
-388 346 -66 36 -71 41 -44 41 17 0 55 -7 85 -16z m-384 -241 c-12 -556 -95
-1043 -182 -1079 l-30 -12 4 83 c11 284 -135 705 -327 944 l-20 25 -28 -34
c-171 -202 -315 -475 -331 -622 -7 -73 9 -77 25 -7 22 93 147 281 233 349 67
53 187 123 198 115 27 -16 118 -290 166 -500 26 -111 44 -329 31 -376 -18 -69
-30 -68 -108 7 -114 110 -254 195 -413 252 -60 21 -93 25 -225 29 -192 6 -191
-6 5 -42 225 -41 337 -84 494 -189 148 -99 189 -146 193 -223 l3 -61 -75 -12
c-108 -17 -235 -62 -369 -130 -191 -97 -396 -230 -356 -230 3 0 59 22 125 50
66 27 122 50 125 50 2 0 91 41 197 92 214 101 355 153 375 136 19 -15 16 -86
-7 -199 -40 -196 -106 -373 -241 -646 -99 -199 -112 -252 -32 -127 180 282
343 702 343 884 0 136 109 -123 145 -345 16 -99 19 -349 5 -460 -5 -38 -14
-136 -21 -217 l-13 -148 -37 0 c-110 0 -301 53 -465 130 -456 212 -717 909
-584 1561 99 484 406 861 892 1094 119 57 247 103 287 104 l24 1 -6 -247z
m1066 -979 c10 -200 -16 -449 -64 -624 -28 -101 -69 -200 -82 -200 -57 0 -497
299 -705 480 -86 74 -90 83 -45 95 15 3 43 13 62 22 20 9 117 49 215 89 l179
73 -6 -157 c-4 -86 -14 -191 -22 -232 -23 -114 -21 -135 18 -164 38 -28 167
-100 171 -95 1 2 19 42 38 89 71 167 106 340 115 552 l6 146 51 21 c28 11 54
20 57 20 3 1 9 -51 12 -115z m-960 -365 c19 -13 82 -60 140 -104 58 -44 154
-110 212 -145 150 -92 140 -82 139 -132 -1 -54 -41 -134 -123 -247 -66 -91
-67 -93 -27 -166 30 -56 49 -56 88 1 143 207 174 234 261 234 48 0 77 23 77
62 0 19 8 22 27 10 16 -10 -39 -106 -124 -219 -64 -85 -243 -273 -260 -273 -6
0 -16 15 -22 33 -7 17 -56 113 -110 212 -54 99 -129 238 -167 309 -54 101 -86
148 -145 210 -41 45 -90 102 -107 128 l-32 47 22 36 c21 36 23 37 69 33 29 -3
62 -15 82 -29z m-58 -320 c41 -50 225 -339 305 -482 25 -43 67 -105 94 -139
l49 -61 -24 -18 c-124 -97 -281 -188 -404 -234 -67 -26 -161 -43 -152 -28 9
14 35 206 46 338 10 119 -1 616 -15 694 l-7 35 34 -28 c19 -16 52 -50 74 -77z"/>
<path data-n="41" pathLength="100" d="M9978 7663 c-29 -33 -78 -117 -78 -134 0 -9 17 -52 37 -95 24 -51 43
-111 53 -169 l15 -90 35 1 c19 1 65 15 103 32 l67 31 0 44 c0 86 -78 283 -143
362 -32 39 -65 45 -89 18z"/>
<path data-n="42" pathLength="100" d="M8689 8298 c-165 -109 -304 -247 -417 -417 -83 -123 -200 -341 -184
-341 5 0 19 24 33 52 124 268 351 539 585 697 123 83 133 91 117 91 -5 0 -66
-37 -134 -82z"/>
<path data-n="43" pathLength="100" d="M8028 8299 c-24 -13 -23 -34 2 -70 26 -35 21 -47 -64 -144 -141 -160
-171 -219 -50 -97 51 52 74 70 70 55 -3 -13 -9 -33 -12 -44 -3 -12 -21 -42
-40 -66 -32 -42 -45 -83 -26 -83 23 0 93 116 148 245 40 93 40 97 13 141 l-21
34 27 10 c14 5 23 14 20 20 -8 13 -45 12 -67 -1z"/>
<path data-n="44" pathLength="100" d="M5560 8224 c-8 -8 -33 -27 -57 -41 -24 -14 -41 -28 -38 -31 3 -3 191
-7 418 -8 497 -3 561 -13 676 -110 18 -14 34 -24 37 -21 11 11 -29 57 -74 87
-87 58 -185 74 -542 90 -268 12 -314 16 -352 36 -35 18 -52 18 -68 -2z"/>
<path data-n="45" pathLength="100" d="M7042 8128 c-21 -35 -62 -108 -90 -163 -28 -55 -81 -135 -116 -178
-72 -86 -74 -101 -15 -117 47 -13 73 -47 63 -84 -19 -77 144 -148 344 -149 74
0 81 -2 69 -16 -18 -22 -77 -154 -77 -173 0 -9 23 -43 51 -77 98 -117 190 -90
288 86 24 43 68 116 98 162 59 94 58 109 -8 85 -52 -18 -147 -22 -175 -6 -10
6 -14 12 -8 12 6 0 62 34 125 76 140 94 244 144 315 151 59 6 74 23 22 23 -82
0 -208 -52 -348 -141 -236 -152 -310 -171 -498 -133 -106 21 -167 52 -167 84
0 25 12 32 76 44 30 6 117 81 107 91 -4 4 -24 -6 -45 -22 -53 -41 -61 -45
-105 -53 -35 -7 -40 -5 -48 15 -10 27 -47 55 -72 55 -26 0 -23 7 25 64 62 74
75 94 166 269 83 159 95 209 23 95z"/>
<path data-n="46" pathLength="100" d="M6320 8009 c-72 -18 -119 -22 -305 -23 -202 -2 -255 -7 -255 -25 0
-3 105 -6 233 -5 203 0 243 3 322 22 144 35 254 23 270 -28 17 -54 -54 -92
-195 -101 -125 -8 -150 -18 -252 -94 -126 -94 -90 -94 48 0 74 51 116 65 196
65 122 0 228 54 228 116 0 83 -123 114 -290 73z"/>
<path data-n="47" pathLength="100" d="M3940 7531 c0 -17 69 -24 112 -12 47 14 58 9 34 -18 -24 -26 -17 -62
16 -80 24 -14 31 -13 75 6 80 36 90 37 97 8 9 -35 82 -72 109 -55 16 10 21 8
35 -12 8 -13 55 -61 104 -109 79 -76 88 -89 88 -121 0 -40 -27 -68 -64 -68
-11 0 -32 -12 -47 -26 l-28 -26 -6 35 c-4 19 -2 44 4 55 11 21 5 52 -10 52 -5
0 -20 18 -35 41 l-26 41 -24 -23 c-13 -12 -24 -32 -24 -44 0 -15 -9 -24 -32
-30 -29 -9 -33 -15 -36 -47 -2 -25 -8 -38 -18 -38 -20 0 -54 37 -54 59 0 11
-9 23 -21 26 -25 8 -39 -2 -15 -11 9 -4 16 -17 16 -34 0 -31 13 -44 53 -54 36
-9 55 6 63 50 5 28 11 34 30 34 19 0 26 7 30 30 7 34 34 63 34 37 0 -9 12 -27
26 -40 23 -21 25 -29 17 -53 -24 -72 26 -135 63 -79 9 14 24 25 34 25 32 0 80
22 91 41 23 44 -7 98 -105 194 -51 50 -100 101 -109 115 -15 23 -17 24 -30 8
-24 -31 -93 -7 -99 34 -4 32 -46 35 -98 8 -75 -39 -134 -9 -91 45 29 38 16 49
-51 39 -60 -9 -55 -9 -85 1 -14 3 -23 2 -23 -4z"/>
<path data-n="48" pathLength="100" d="M3580 7401 c0 -13 46 -41 67 -41 10 0 40 -11 67 -25 29 -15 66 -25
91 -25 48 0 113 -32 170 -84 50 -46 45 -70 -15 -74 -84 -6 -72 -40 33 -94 56
-28 72 -55 31 -51 -53 4 -102 18 -126 36 -18 13 -33 17 -45 12 -17 -8 -17 -8
2 -13 11 -2 29 -12 40 -22 30 -26 148 -41 167 -22 20 20 -5 50 -69 83 -79 41
-92 60 -35 52 44 -6 72 14 72 51 0 46 -152 146 -223 146 -28 0 -61 9 -91 25
-26 14 -54 25 -62 25 -8 0 -28 7 -44 15 -17 9 -30 11 -30 6z"/>
<path data-n="49" pathLength="100" d="M8007 7343 c-233 -459 -55 -1341 353 -1753 70 -71 304 -239 316 -227
3 2 -38 35 -91 72 -224 156 -337 285 -452 517 -227 457 -275 1018 -118 1374
31 71 25 84 -8 17z"/>
<path data-n="50" pathLength="100" d="M3399 6746 c-40 -27 -88 -95 -92 -128 -2 -18 4 -24 26 -26 15 -2 27
-6 27 -9 0 -16 -80 -100 -154 -164 -118 -100 -124 -118 -82 -274 43 -157 84
-256 176 -420 49 -87 88 -160 86 -162 -1 -2 -27 2 -57 7 -30 6 -144 19 -254
30 -301 30 -280 25 -346 86 -32 29 -83 69 -113 90 -31 20 -56 38 -56 40 0 22
304 154 438 190 57 15 101 32 99 38 -2 5 -47 23 -99 38 -53 15 -143 48 -200
73 -57 26 -109 49 -115 52 -7 3 -13 1 -13 -4 0 -24 309 -151 374 -154 11 -1
-11 -9 -51 -19 -193 -48 -453 -171 -453 -214 0 -8 21 -29 47 -47 25 -18 77
-59 115 -91 86 -74 77 -72 393 -103 143 -14 278 -28 300 -31 39 -6 39 -6 23
12 -28 30 -176 326 -214 427 -37 98 -84 266 -84 299 0 13 49 68 130 147 104
101 130 132 130 154 0 22 -4 27 -25 27 -32 0 -31 11 1 60 32 48 81 80 122 80
45 0 56 -26 42 -97 -18 -101 -10 -124 32 -86 17 15 18 14 18 -35 0 -59 5 -64
138 -127 64 -31 82 -44 82 -60 0 -29 -19 -45 -52 -45 -46 0 -33 -38 25 -73 15
-10 38 -35 52 -57 14 -22 32 -40 41 -40 21 0 84 63 84 84 0 38 92 -8 260 -129
47 -34 142 -100 213 -149 127 -87 146 -106 106 -106 -12 0 -157 -27 -323 -59
-165 -32 -320 -62 -343 -66 -24 -4 -43 -11 -43 -16 0 -6 15 -7 33 -4 17 3 87
14 155 25 127 21 564 109 570 115 17 17 -45 68 -307 252 -253 177 -317 202
-348 136 -24 -49 -51 -65 -67 -38 -6 11 -28 37 -49 58 l-38 37 26 12 c27 12
39 40 33 79 -2 19 -24 35 -112 78 l-108 53 6 44 c3 24 19 71 36 105 17 34 29
64 25 67 -3 3 -35 -26 -71 -64 -52 -55 -64 -64 -60 -44 17 91 18 121 2 145
-23 34 -87 35 -137 1z"/>
<path data-n="51" pathLength="100" d="M1987 6557 c-18 -18 -68 -73 -112 -122 -108 -121 -132 -145 -142
-145 -5 0 -58 38 -118 85 -112 87 -208 145 -221 133 -13 -14 6 -38 84 -102 43
-36 105 -95 137 -131 88 -101 140 -117 226 -72 56 30 76 65 94 163 24 136 64
204 118 204 44 -1 96 -26 229 -111 62 -40 152 -90 199 -111 134 -59 309 -98
309 -68 0 6 -12 10 -27 10 -104 0 -304 77 -468 179 -207 130 -255 144 -308 88z"/>
<path data-n="52" pathLength="100" d="M2449 6185 c-36 -7 -134 -34 -218 -59 -84 -25 -155 -46 -157 -46 -3
0 -3 -4 0 -9 3 -5 30 -12 59 -15 81 -10 151 -48 231 -125 66 -63 120 -101 146
-101 20 0 9 18 -15 24 -14 4 -63 42 -109 85 -86 81 -123 106 -189 126 l-39 11
149 42 c81 23 185 48 231 56 46 8 86 17 89 20 11 11 -110 5 -178 -9z"/>
<path data-n="53" pathLength="100" d="M14765 6079 c-354 -47 -514 -233 -502 -579 10 -310 133 -434 582
-595 316 -113 379 -172 361 -337 -18 -154 -81 -211 -236 -212 -146 -2 -245 82
-266 226 -13 90 -8 88 -227 88 -137 0 -196 -3 -205 -12 -17 -17 -15 -89 4
-161 63 -244 281 -411 567 -434 43 -3 80 -10 82 -14 3 -4 -20 -76 -50 -159
-30 -84 -55 -155 -55 -159 0 -11 69 120 334 634 142 275 277 535 300 579 l41
78 -40 34 c-59 50 -240 136 -409 194 -301 103 -354 153 -344 319 8 145 72 210
213 219 156 10 244 -69 269 -240 12 -78 12 -78 222 -78 240 0 237 -2 209 147
-43 225 -196 382 -432 444 -91 24 -308 33 -418 18z"/>
<path data-n="54" pathLength="100" d="M15929 5743 c-90 -174 -165 -320 -167 -325 -2 -4 61 -8 141 -8 201 0
256 -23 306 -129 34 -73 39 -312 8 -393 -41 -105 -98 -128 -324 -128 l-163 0
-16 26 c-15 23 -16 52 -11 276 3 137 4 248 2 246 -3 -3 -77 -144 -333 -638
l-101 -195 -9 -395 c-7 -329 -7 -399 5 -417 13 -23 17 -23 218 -23 242 0 238
-2 230 110 -2 36 -7 197 -10 357 -7 365 -24 333 183 333 607 1 815 164 814
635 0 234 -45 368 -163 480 -102 98 -290 164 -464 165 -38 0 -75 4 -81 8 -8 5
6 55 46 167 32 88 57 161 56 162 -1 2 -76 -140 -167 -314z"/>
<path data-n="55" pathLength="100" d="M15818 4102 c-16 -43 -28 -81 -28 -85 0 -16 18 -6 23 13 4 16 14 20
45 20 31 0 41 -4 45 -20 3 -11 10 -20 16 -20 6 0 -2 35 -19 82 -17 45 -30 83
-30 85 0 2 -6 3 -12 3 -7 0 -25 -35 -40 -78z m55 13 l16 -45 -30 0 c-33 0 -33
-1 -17 51 14 48 13 48 31 -6z"/>
<path data-n="56" pathLength="100" d="M15962 4103 c3 -74 4 -78 31 -91 22 -11 32 -11 55 0 26 13 27 16 28
93 l1 80 -6 -73 c-6 -73 -16 -92 -51 -92 -29 0 -40 23 -40 86 0 35 -5 66 -10
69 -7 5 -10 -19 -8 -72z"/>
<path data-n="57" pathLength="100" d="M16120 4170 c0 -5 11 -10 25 -10 24 0 25 -2 25 -75 0 -43 4 -75 10
-75 6 0 10 32 10 75 0 73 1 75 25 75 14 0 25 5 25 10 0 6 -27 10 -60 10 -33 0
-60 -4 -60 -10z"/>
<path data-n="58" pathLength="100" d="M16295 4155 c-55 -54 -23 -147 50 -147 50 0 75 28 75 84 0 76 -75
114 -125 63z m95 -14 c38 -73 -26 -155 -82 -104 -42 38 -17 123 37 123 24 0
38 -6 45 -19z"/>
<path data-n="59" pathLength="100" d="M16472 4093 l2 -88 5 70 6 70 18 -39 c10 -22 20 -50 23 -63 14 -54
29 -45 60 39 l23 63 0 -67 c1 -38 5 -68 11 -68 6 0 10 35 10 85 0 107 -16 112
-50 15 -13 -38 -27 -70 -30 -70 -3 0 -17 30 -30 67 -37 98 -50 94 -48 -14z"/>
<path data-n="60" pathLength="100" d="M16706 4159 c-48 -38 -28 -143 29 -150 36 -5 71 10 83 36 41 90 -39
172 -112 114z m88 -15 c20 -20 20 -73 0 -102 -18 -26 -56 -29 -78 -6 -19 18
-22 94 -4 112 17 17 64 15 82 -4z"/>
<path data-n="61" pathLength="100" d="M16850 4170 c0 -5 13 -10 30 -10 l29 0 4 -77 3 -78 2 78 2 77 30 0
c17 0 30 5 30 10 0 6 -28 10 -65 10 -37 0 -65 -4 -65 -10z"/>
<path data-n="62" pathLength="100" d="M17017 4173 c-11 -11 -8 -163 3 -163 6 0 10 35 10 85 0 85 -1 91 -13
78z"/>
<path data-n="63" pathLength="100" d="M17070 4173 c0 -30 57 -163 69 -161 15 3 75 168 61 168 -5 0 -18 -30
-30 -67 -30 -92 -33 -93 -59 -13 -19 60 -41 99 -41 73z"/>
<path data-n="64" pathLength="100" d="M17250 4095 l0 -85 53 2 52 2 -48 3 c-47 4 -48 5 -45 36 3 29 6 32
43 36 l40 5 -40 5 c-35 5 -40 10 -43 34 -3 26 -2 27 42 27 25 0 46 5 46 10 0
6 -22 10 -50 10 l-50 0 0 -85z"/>
<path data-n="65" pathLength="100" d="M15825 3838 c-74 -64 3 -198 83 -142 12 8 22 20 22 26 0 6 -8 4 -18
-5 -44 -40 -97 -11 -97 53 0 21 7 45 14 54 16 19 62 21 79 4 6 -6 15 -9 19 -5
10 11 -9 26 -43 33 -24 4 -37 0 -59 -18z"/>
<path data-n="66" pathLength="100" d="M15996 3839 c-56 -44 -23 -159 46 -159 78 0 104 136 32 169 -35 16
-47 14 -78 -10z m88 -21 c34 -48 8 -118 -43 -118 -37 0 -56 23 -56 70 0 67 64
98 99 48z"/>
<path data-n="67" pathLength="100" d="M16522 3844 c-40 -27 -25 -65 30 -79 38 -10 54 -31 38 -50 -14 -17
-56 -20 -65 -5 -8 13 -25 13 -25 0 0 -35 91 -35 110 -1 15 30 1 51 -47 72 -61
26 -57 55 7 52 41 -2 43 -1 26 13 -25 18 -46 18 -74 -2z"/>
<path data-n="68" pathLength="100" d="M16763 3850 c-49 -20 -59 -104 -18 -145 50 -51 125 -13 125 63 0 65
-52 105 -107 82z m71 -26 c38 -38 11 -124 -39 -124 -35 0 -55 26 -55 70 0 44
20 70 55 70 13 0 31 -7 39 -16z"/>
<path data-n="69" pathLength="100" d="M17186 3844 c-18 -18 -19 -23 -6 -44 6 -10 3 -20 -11 -33 -43 -40 3
-102 61 -80 20 8 31 8 39 0 6 -6 14 -7 18 -2 5 4 2 10 -5 12 -9 3 -11 16 -6
39 4 22 2 34 -5 34 -6 0 -11 -12 -11 -27 l0 -28 -24 30 c-23 29 -23 30 -5 43
22 15 25 42 7 60 -16 16 -33 15 -52 -4z m48 -13 c8 -13 -20 -45 -32 -37 -20
12 -14 46 7 46 11 0 22 -4 25 -9z m6 -124 c0 -5 -15 -7 -32 -5 -36 3 -48 28
-27 55 12 13 16 12 36 -13 13 -16 23 -33 23 -37z"/>
<path data-n="70" pathLength="100" d="M16162 3768 l3 -83 48 -3 c28 -2 47 1 47 7 0 6 -18 11 -40 11 l-40 0
0 75 c0 45 -4 75 -10 75 -7 0 -10 -30 -8 -82z"/>
<path data-n="71" pathLength="100" d="M16300 3765 l0 -85 50 0 c28 0 50 5 50 10 0 6 -18 10 -40 10 l-40 0
0 75 c0 43 -4 75 -10 75 -6 0 -10 -35 -10 -85z"/>
<path data-n="72" pathLength="100" d="M16430 3771 c0 -44 5 -83 10 -86 6 -4 10 25 10 79 0 51 -4 86 -10 86
-6 0 -10 -33 -10 -79z"/>
<path data-n="73" pathLength="100" d="M16664 3765 c0 -49 1 -71 3 -48 2 23 2 64 0 90 -2 26 -3 8 -3 -42z"/>
<path data-n="74" pathLength="100" d="M16922 3763 l2 -88 3 73 c2 39 7 72 11 72 4 0 26 -32 50 -70 24 -39
47 -70 53 -70 5 0 9 38 9 85 0 98 -18 116 -22 23 l-3 -63 -40 63 c-55 86 -65
82 -63 -25z"/>
<path data-n="75" pathLength="100" d="M17380 3771 c0 -44 5 -83 10 -86 6 -4 10 10 10 34 0 66 58 57 75 -12
7 -25 25 -39 25 -18 0 19 -21 66 -33 73 -9 6 -9 8 0 8 21 0 35 37 23 60 -8 16
-21 20 -60 20 l-50 0 0 -79z m90 54 c20 -24 4 -45 -35 -45 -32 0 -35 2 -35 30
0 26 3 30 29 30 16 0 34 -7 41 -15z"/>
<path data-n="76" pathLength="100" d="M17542 3768 l3 -83 53 -3 c31 -2 52 1 52 7 0 6 -20 11 -46 11 -45 0
-45 0 -42 33 3 29 7 33 43 38 l40 6 -42 2 c-41 1 -43 3 -43 30 0 28 2 30 48
34 46 3 46 3 -11 5 l-58 2 3 -82z"/>
<path data-n="77" pathLength="100" d="M17690 3765 c0 -50 4 -85 10 -85 6 0 10 16 10 35 0 32 2 35 30 35 29
0 70 29 70 51 0 34 -22 49 -70 49 l-50 0 0 -85z m90 60 c21 -26 3 -55 -36 -55
-32 0 -34 2 -34 35 0 32 3 35 29 35 16 0 34 -7 41 -15z"/>
<path data-n="78" pathLength="100" d="M17875 3840 c-6 -9 -55 -150 -55 -157 0 -15 21 3 26 22 9 38 80 37
95 -1 23 -62 19 -8 -6 65 -25 76 -44 98 -60 71z m45 -77 c0 -8 -12 -13 -30
-13 -19 0 -28 4 -25 13 2 6 10 26 16 42 l11 30 14 -30 c7 -16 13 -36 14 -42z"/>
<path data-n="79" pathLength="100" d="M18000 3765 c0 -50 4 -85 10 -85 6 0 10 35 10 85 0 50 -4 85 -10 85
-6 0 -10 -35 -10 -85z"/>
<path data-n="80" pathLength="100" d="M18082 3763 c1 -49 3 -69 5 -45 4 39 6 42 34 42 16 0 32 -6 34 -12
20 -59 28 -72 32 -56 3 10 -2 31 -10 48 -13 25 -13 31 -1 41 37 30 7 69 -53
69 l-43 0 2 -87z m83 47 c0 -22 -5 -25 -37 -28 -36 -3 -38 -2 -38 28 0 30 2
31 38 28 32 -3 37 -6 37 -28z"/>
</g>
</svg>
